<svg xmlns="http://www.w3.org/2000/svg" width="164.078" height="14" viewBox="0 0 164.078 14"><g transform="translate(-168 -202)"><g transform="translate(168 202)"><path d="M931.036,1036.51a4.82,4.82,0,0,1-1.911-.327,2.531,2.531,0,0,1-1.166-.987,4.417,4.417,0,0,1-.581-1.651,14.17,14.17,0,0,1-.163-2.28,14.542,14.542,0,0,1,.163-2.318,4.363,4.363,0,0,1,.587-1.657,2.646,2.646,0,0,1,1.168-1,4.7,4.7,0,0,1,1.917-.334c.346,0,.7.017,1.056.052s.691.08,1,.133.581.106.809.156l-.06,1.173c-.207-.039-.468-.075-.78-.111s-.628-.067-.95-.1-.616-.044-.885-.044a3.064,3.064,0,0,0-1.307.238,1.71,1.71,0,0,0-.781.726,3.437,3.437,0,0,0-.371,1.248,14.806,14.806,0,0,0-.1,1.829,14.472,14.472,0,0,0,.1,1.8,3.48,3.48,0,0,0,.363,1.242,1.646,1.646,0,0,0,.78.714,3.3,3.3,0,0,0,1.331.229q.623,0,1.36-.074t1.256-.162l.044,1.188c-.238.049-.518.1-.841.147s-.658.09-1.01.12S931.371,1036.51,931.036,1036.51Z" transform="translate(-927.216 -1025.603)" fill="#9a9aa0"/><path d="M935.839,1035.67a3.338,3.338,0,0,1-1.806-.422,2.391,2.391,0,0,1-.957-1.271,6.5,6.5,0,0,1-.3-2.125,5.457,5.457,0,0,1,.394-2.259,2.648,2.648,0,0,1,1.106-1.264,3.429,3.429,0,0,1,1.711-.4,3.034,3.034,0,0,1,2.31.825,3.776,3.776,0,0,1,.78,2.653l-.075.936h-4.814a2.845,2.845,0,0,0,.4,1.613,1.607,1.607,0,0,0,1.4.542c.287,0,.6-.007.943-.021s.679-.033,1.017-.053.624-.039.862-.058l.03,1.04c-.248.039-.545.082-.892.126s-.706.08-1.077.1S936.156,1035.67,935.839,1035.67Zm-1.649-4.353H937.7a2.9,2.9,0,0,0-.408-1.769,1.577,1.577,0,0,0-1.3-.505,2,2,0,0,0-.982.223,1.426,1.426,0,0,0-.611.721A3.564,3.564,0,0,0,934.189,1031.317Z" transform="translate(-924.842 -1024.763)" fill="#9a9aa0"/><path d="M938.422,1035.526v-7.446H939.8v.966a6.045,6.045,0,0,1,.683-.415,9.336,9.336,0,0,1,.915-.424,4.945,4.945,0,0,1,.987-.29v1.381a7.872,7.872,0,0,0-.972.253q-.5.165-.923.35c-.281.125-.513.236-.691.334v5.291Z" transform="translate(-922.433 -1024.767)" fill="#9a9aa0"/><path d="M944.848,1036.293a2.8,2.8,0,0,1-1.256-.237,1.364,1.364,0,0,1-.668-.825,5.32,5.32,0,0,1-.2-1.656v-3.717h-1.01v-1.173h1.01V1026.5h1.367v2.185h2.215v1.173H944.09v3.33a7.5,7.5,0,0,0,.067,1.136.879.879,0,0,0,.275.574,1.059,1.059,0,0,0,.654.163c.1,0,.224,0,.371-.007s.3-.016.461-.03l.417-.037.074,1.129c-.148.031-.32.057-.512.082s-.385.047-.572.068S944.978,1036.293,944.848,1036.293Z" transform="translate(-921.028 -1025.373)" fill="#9a9aa0"/><path d="M945.943,1027.411v-1.441h1.379v1.441Zm0,8.947v-7.446h1.379v7.446Z" transform="translate(-919.222 -1025.599)" fill="#9a9aa0"/><path d="M948.892,1036.469V1030.2h-.878v-1.173h.878v-.579a5.723,5.723,0,0,1,.192-1.673,1.326,1.326,0,0,1,.654-.831,2.758,2.758,0,0,1,1.219-.23c.128,0,.3,0,.513.014s.419.022.615.037a3.649,3.649,0,0,1,.432.051l-.016,1.114q-.253-.013-.608-.013h-.581a1.276,1.276,0,0,0-.624.126.724.724,0,0,0-.319.461,3.506,3.506,0,0,0-.1.943v.579h2.05v1.173h-2.05v6.273Z" transform="translate(-918.338 -1025.71)" fill="#9a9aa0"/><path d="M952,1027.411v-1.441h1.381v1.441Zm0,8.947v-7.446h1.381v7.446Z" transform="translate(-916.635 -1025.599)" fill="#9a9aa0"/><path d="M957.306,1035.67a3.337,3.337,0,0,1-1.807-.422,2.4,2.4,0,0,1-.959-1.271,6.539,6.539,0,0,1-.3-2.125,5.454,5.454,0,0,1,.4-2.259,2.642,2.642,0,0,1,1.106-1.264,3.426,3.426,0,0,1,1.709-.4,3.036,3.036,0,0,1,2.311.825,3.777,3.777,0,0,1,.779,2.653l-.075.936h-4.814a2.835,2.835,0,0,0,.4,1.613,1.606,1.606,0,0,0,1.4.542c.288,0,.6-.007.943-.021s.681-.033,1.017-.053.625-.039.863-.058l.029,1.04c-.247.039-.544.082-.892.126s-.7.08-1.076.1S957.622,1035.67,957.306,1035.67Zm-1.65-4.353h3.507a2.883,2.883,0,0,0-.409-1.769,1.575,1.575,0,0,0-1.3-.505,1.991,1.991,0,0,0-.98.223,1.418,1.418,0,0,0-.611.721A3.528,3.528,0,0,0,955.656,1031.317Z" transform="translate(-915.679 -1024.763)" fill="#9a9aa0"/><path d="M962.375,1036.573a3.608,3.608,0,0,1-.879-.1,2.036,2.036,0,0,1-1.328-1.025,3.631,3.631,0,0,1-.372-1.093,8.669,8.669,0,0,1-.125-1.6,6.476,6.476,0,0,1,.312-2.179,2.492,2.492,0,0,1,.995-1.307,3.346,3.346,0,0,1,1.828-.438c.178,0,.376.01.593.03s.432.044.64.074.371.054.49.074v-3.2h1.4v10.612h-1.367l-.014-.475a4.374,4.374,0,0,1-.588.281,4.873,4.873,0,0,1-.781.245A3.57,3.57,0,0,1,962.375,1036.573Zm.251-1.2a3.217,3.217,0,0,0,.714-.082,5.532,5.532,0,0,0,.676-.2c.213-.079.384-.148.512-.208v-4.711c-.109-.018-.26-.038-.452-.06l-.6-.059c-.2-.018-.388-.03-.558-.03a1.752,1.752,0,0,0-1.1.311,1.715,1.715,0,0,0-.572.923,5.608,5.608,0,0,0-.171,1.5,6.088,6.088,0,0,0,.119,1.337,2.08,2.08,0,0,0,.335.787,1.116,1.116,0,0,0,.5.387A1.734,1.734,0,0,0,962.626,1035.37Z" transform="translate(-913.363 -1025.666)" fill="#9a9aa0"/><path d="M1009.7,1038.763v-10.686h1.381v.519a5.768,5.768,0,0,1,.58-.29,6.026,6.026,0,0,1,.759-.267,2.879,2.879,0,0,1,.773-.111,2.767,2.767,0,0,1,1.567.4,2.348,2.348,0,0,1,.892,1.241,6.777,6.777,0,0,1,.289,2.162,6.582,6.582,0,0,1-.334,2.312,2.263,2.263,0,0,1-1.054,1.248,4,4,0,0,1-1.866.378,7.053,7.053,0,0,1-.9-.059c-.3-.041-.538-.074-.706-.106v3.257Zm2.853-4.281a2.156,2.156,0,0,0,1.181-.283,1.512,1.512,0,0,0,.618-.892,5.83,5.83,0,0,0,.178-1.589,3.543,3.543,0,0,0-.417-2,1.367,1.367,0,0,0-1.174-.573,3.016,3.016,0,0,0-.676.082,6.367,6.367,0,0,0-.661.194,2.563,2.563,0,0,0-.521.244v4.682c.15.02.365.047.647.082A6.663,6.663,0,0,0,1012.555,1034.482Z" transform="translate(-892.005 -1024.763)" fill="#9a9aa0"/><path d="M1017.189,1035.67a2.108,2.108,0,0,1-1.605-.579,2.393,2.393,0,0,1-.549-1.709,2.457,2.457,0,0,1,.268-1.226,1.684,1.684,0,0,1,.795-.706,3.743,3.743,0,0,1,1.314-.282l2.154-.207v-.581a1.3,1.3,0,0,0-.312-.988,1.326,1.326,0,0,0-.934-.289c-.258,0-.559.01-.907.029s-.688.046-1.025.074-.639.06-.906.09l-.06-1.01q.372-.088.883-.164c.342-.05.7-.094,1.079-.133a9.891,9.891,0,0,1,1.039-.06,3.562,3.562,0,0,1,1.443.253,1.66,1.66,0,0,1,.832.787,3.093,3.093,0,0,1,.268,1.383v3.656a.556.556,0,0,0,.245.438,1.287,1.287,0,0,0,.541.185l-.044,1.026c-.139,0-.277,0-.417-.007a3.435,3.435,0,0,1-.385-.037c-.118-.02-.232-.046-.342-.074a1.659,1.659,0,0,1-.422-.171,2.218,2.218,0,0,1-.351-.261,6.489,6.489,0,0,1-.7.254,8.023,8.023,0,0,1-.921.222A5.555,5.555,0,0,1,1017.189,1035.67Zm.283-1.1a4.127,4.127,0,0,0,.766-.074c.261-.049.512-.105.749-.172s.432-.121.579-.17v-2.23l-1.976.194a1.073,1.073,0,0,0-1.159,1.219,1.4,1.4,0,0,0,.261.906A.932.932,0,0,0,1017.471,1034.57Z" transform="translate(-889.729 -1024.763)" fill="#9a9aa0"/><path d="M1020.742,1035.526v-7.446h1.381v.966a5.966,5.966,0,0,1,.685-.415,9.176,9.176,0,0,1,.913-.424,4.961,4.961,0,0,1,.989-.29v1.381a7.8,7.8,0,0,0-.973.253q-.5.165-.922.35t-.692.334v5.291Z" transform="translate(-887.292 -1024.767)" fill="#9a9aa0"/><path d="M1027.17,1036.293a2.8,2.8,0,0,1-1.256-.237,1.367,1.367,0,0,1-.669-.825,5.332,5.332,0,0,1-.2-1.656v-3.717h-1.01v-1.173h1.01V1026.5h1.367v2.185h2.214v1.173h-2.214v3.33a7.493,7.493,0,0,0,.067,1.136.878.878,0,0,0,.277.574,1.055,1.055,0,0,0,.653.163c.1,0,.223,0,.37-.007s.3-.016.462-.03l.416-.037.073,1.129c-.148.031-.318.057-.512.082s-.384.047-.571.068S1027.3,1036.293,1027.17,1036.293Z" transform="translate(-885.887 -1025.373)" fill="#9a9aa0"/><path d="M1028.262,1035.522v-7.445h1.381v.519a4.042,4.042,0,0,1,.609-.3,7.48,7.48,0,0,1,.788-.26,3.11,3.11,0,0,1,.8-.111,3.464,3.464,0,0,1,1.27.2,1.634,1.634,0,0,1,.78.64,3.041,3.041,0,0,1,.4,1.136,10.245,10.245,0,0,1,.12,1.694v3.924h-1.4v-3.848a8.393,8.393,0,0,0-.1-1.473,1.278,1.278,0,0,0-.416-.794,1.509,1.509,0,0,0-.938-.245,3.494,3.494,0,0,0-.7.076,4.647,4.647,0,0,0-.683.191c-.214.08-.39.156-.528.224v5.87Z" transform="translate(-884.082 -1024.763)" fill="#9a9aa0"/><path d="M1036.843,1035.67a3.338,3.338,0,0,1-1.807-.422,2.4,2.4,0,0,1-.958-1.271,6.539,6.539,0,0,1-.3-2.125,5.455,5.455,0,0,1,.4-2.259,2.641,2.641,0,0,1,1.105-1.264,3.43,3.43,0,0,1,1.709-.4,3.035,3.035,0,0,1,2.311.825,3.776,3.776,0,0,1,.779,2.653l-.074.936h-4.814a2.847,2.847,0,0,0,.4,1.613,1.606,1.606,0,0,0,1.4.542c.289,0,.6-.007.945-.021s.679-.033,1.016-.053.625-.039.864-.058l.029,1.04c-.247.039-.544.082-.892.126s-.7.08-1.076.1S1037.16,1035.67,1036.843,1035.67Zm-1.649-4.353h3.507a2.9,2.9,0,0,0-.408-1.769,1.579,1.579,0,0,0-1.3-.505,1.992,1.992,0,0,0-.98.223,1.422,1.422,0,0,0-.611.721A3.558,3.558,0,0,0,1035.194,1031.317Z" transform="translate(-881.726 -1024.763)" fill="#9a9aa0"/><path d="M1039.427,1035.526v-7.446h1.381v.966a6.069,6.069,0,0,1,.684-.415,9.123,9.123,0,0,1,.914-.424,4.943,4.943,0,0,1,.987-.29v1.381a7.854,7.854,0,0,0-.972.253c-.334.11-.64.227-.923.35s-.512.236-.691.334v5.291Z" transform="translate(-879.316 -1024.767)" fill="#9a9aa0"/></g><g transform="translate(226.155 202.123)"><g transform="translate(17.465 2.38)"><path d="M969.268,1002.063a3.5,3.5,0,0,0-2.749,1.351v0h0V1002.2H964.2v8.43h2.315v-4.8a1.806,1.806,0,0,1,1.909-1.781,1.857,1.857,0,0,1,1.949,1.781v4.8h2.315v-5.226a3.245,3.245,0,0,0-3.424-3.346" transform="translate(-964.204 -1002.063)" fill="#e60012"/></g><g transform="translate(35.574 2.522)"><path d="M1009.971,1002.368l-2.093,5.742-2.093-5.742h-2.645l3.469,8.427h2.536l3.469-8.427Z" transform="translate(-1003.141 -1002.368)" fill="#e60012"/></g><g transform="translate(7.828 2.379)"><path d="M946.211,1004.744a2.154,2.154,0,0,1,1.78-.84,1.936,1.936,0,0,1,1.794,1.18l-4.044,1.678a2.71,2.71,0,0,1,.469-2.017m4.447,3.3a3.521,3.521,0,0,1-2.42.893,2.565,2.565,0,0,1-1.867-.683l5.918-2.455a4.565,4.565,0,0,0-1.011-2.353,4.228,4.228,0,0,0-3.33-1.381,4.317,4.317,0,0,0-4.464,4.357c0,2.544,1.924,4.358,4.719,4.358a5.552,5.552,0,0,0,3.917-1.61Z" transform="translate(-943.485 -1002.063)" fill="#e60012"/></g><path d="M934.262,1005.772H929v-8.826h-2.346V1007.9h7.608Z" transform="translate(-926.654 -996.946)" fill="#e60012"/><g transform="translate(44.689 2.379)"><path d="M1027.255,1004.046a2.22,2.22,0,0,0-2.232,2.373,2.3,2.3,0,0,0,2.262,2.373,2.234,2.234,0,0,0,2.232-2.373,2.3,2.3,0,0,0-2.262-2.373m0,6.73a4.36,4.36,0,1,1,4.545-4.357,4.374,4.374,0,0,1-4.545,4.357" transform="translate(-1022.74 -1002.063)" fill="#e60012"/></g><g transform="translate(26.868 2.379)"><path d="M988.936,1004.046a2.219,2.219,0,0,0-2.231,2.373,2.3,2.3,0,0,0,2.263,2.373,2.234,2.234,0,0,0,2.231-2.373,2.3,2.3,0,0,0-2.262-2.373m0,6.73a4.36,4.36,0,1,1,4.546-4.357,4.374,4.374,0,0,1-4.546,4.357" transform="translate(-984.421 -1002.063)" fill="#e60012"/></g></g></g></svg>