<svg xmlns="http://www.w3.org/2000/svg" xmlns:xlink="http://www.w3.org/1999/xlink" width="174" height="74" viewBox="0 0 174 74">
  <defs>
    <style>
      .cls-1 {
        fill: #fff;
        opacity: 0;
      }

      .cls-2 {
        fill: url(#linear-gradient);
      }

      .cls-3 {
        fill: url(#linear-gradient-2);
      }

      .cls-4, .cls-5 {
        fill-rule: evenodd;
      }

      .cls-4 {
        fill: url(#linear-gradient-3);
      }

      .cls-5 {
        fill: url(#linear-gradient-4);
      }
    </style>
    <linearGradient id="linear-gradient" x1="111.50075" y1="20.8" x2="111.50075" y2="53" gradientUnits="userSpaceOnUse">
      <stop offset="0" stop-color="#827aff"/>
      <stop offset="1" stop-color="#7ca3ff"/>
    </linearGradient>
    <linearGradient id="linear-gradient-2" x1="119.94844" y1="20.8" x2="119.94844" y2="53" xlink:href="#linear-gradient"/>
    <linearGradient id="linear-gradient-3" x1="49.82363" y1="20.8" x2="49.82363" y2="53" xlink:href="#linear-gradient"/>
    <linearGradient id="linear-gradient-4" x1="29.98242" y1="20.8" x2="29.98242" y2="53" xlink:href="#linear-gradient"/>
  </defs>
  <title>apodi</title>
  <g id="Layer_2" data-name="Layer 2">
    <g id="Layer_2-2" data-name="Layer 2">
      <rect class="cls-1" width="174" height="74"/>
    </g>
    <g id="Layer_1-2" data-name="Layer 1">
      <g>
        <path class="cls-2" d="M87.83053,51.94668V28.58H93.902v2.5025a8.04591,8.04591,0,0,1,2.31209-2.1378,6.602,6.602,0,0,1,3.139-.751,6.09345,6.09345,0,0,1,5.25568,2.60046,10.78219,10.78219,0,0,1,1.8548,6.42535q0,4.21878-2.02369,6.44657A6.62622,6.62622,0,0,1,99.32608,45.886a7.14491,7.14491,0,0,1-2.73654-.50622A6.57617,6.57617,0,0,1,94.38081,43.862v8.08473ZM69.223,30.84889a5.55109,5.55109,0,0,1,1.90416-1.61576,7.855,7.855,0,0,1,2.45358-.76722,19.84085,19.84085,0,0,1,3.37846-.2722,26.81735,26.81735,0,0,1,4.68427.32654,6.00522,6.00522,0,0,1,2.9486,1.36556,4.74471,4.74471,0,0,1,1.31124,2.02909,7.3596,7.3596,0,0,1,.473,2.5137l.03086,11.07653h-5.999l-.0054-2.07267A8.22093,8.22093,0,0,1,77.86787,45.184a10.47162,10.47162,0,0,1-3.9988.70208,6.71166,6.71166,0,0,1-4.60253-1.40373,4.44339,4.44339,0,0,1-1.56683-3.45444,4.51173,4.51173,0,0,1,1.13154-3.17179,7.61737,7.61737,0,0,1,4.17269-1.84983Q76.66,35.27181,77.74256,34.978a22.68861,22.68861,0,0,0,2.29048-.77262c0-2.32748-4.697-2.79516-5.62537-.14689H67.904A8.89211,8.89211,0,0,1,69.223,30.84889Zm79.58829-8.71h6.49053v4.41748h-6.49053V22.13886Zm0,5.84088h6.49053V45.50513h-6.49053V27.97974Zm-1.42345-5.84088V45.50513h-6.07142V43.00261a8.31344,8.31344,0,0,1-2.32826,2.15437,6.69082,6.69082,0,0,1-3.12288.72905,6.04328,6.04328,0,0,1-5.288-2.62781,10.95586,10.95586,0,0,1-1.82282-6.39259q0-4.2107,2.01868-6.43582a6.59188,6.59188,0,0,1,5.11918-2.2361,7.21291,7.21291,0,0,1,2.75308.51159,6.34738,6.34738,0,0,1,2.19219,1.52865V22.13886ZM140.8811,36.9963a4.44644,4.44644,0,0,0-.84317-2.976,2.691,2.691,0,0,0-2.1328-.97925,2.36073,2.36073,0,0,0-1.89838.94147,5.03143,5.03143,0,0,0-.76722,3.15523,4.78312,4.78312,0,0,0,.78881,3.03574,2.43821,2.43821,0,0,0,1.95314.96309,2.60262,2.60262,0,0,0,2.07266-.96849,4.86844,4.86844,0,0,0,.827-3.17182Zm-32.994.09254a8.46878,8.46878,0,0,1,2.61127-6.38143,9.76578,9.76578,0,0,1,7.06151-2.5137q5.08447,0,7.68182,2.949a8.54735,8.54735,0,0,1,2.08922,5.85363,8.50661,8.50661,0,0,1-2.58965,6.398,9.90694,9.90694,0,0,1-7.16483,2.49173,10.0536,10.0536,0,0,1-6.59925-2.073,8.30573,8.30573,0,0,1-3.09009-6.72414Zm6.50134-.0162a5.068,5.068,0,0,0,.91913,3.34568,2.992,2.992,0,0,0,4.60254.01621,5.25215,5.25215,0,0,0,.9033-3.42742,5.00463,5.00463,0,0,0-.9087-3.27514,2.83491,2.83491,0,0,0-2.24691-1.07141,2.94616,2.94616,0,0,0-2.34448,1.088,5.06919,5.06919,0,0,0-.92488,3.32411Zm-34.3554.39712q-1.33817.48111-2.78551.84854A6.44776,6.44776,0,0,0,74.745,39.35193a1.6597,1.6597,0,0,0-.01081,2.44817,2.28391,2.28391,0,0,0,1.57223.48423,4.0752,4.0752,0,0,0,2.01828-.522,3.23768,3.23768,0,0,0,1.322-1.2842,4.30387,4.30387,0,0,0,.38628-1.96935v-1.039Zm14.30419-.38092a4.44231,4.44231,0,0,0,.84318,2.98134,2.70242,2.70242,0,0,0,2.1324.97389,2.35508,2.35508,0,0,0,1.89876-.93572,5.03024,5.03024,0,0,0,.76724-3.161,4.68569,4.68569,0,0,0-.79961-3.01949,2.42322,2.42322,0,0,0-1.94234-.96811,2.60657,2.60657,0,0,0-2.07266.97385A4.82671,4.82671,0,0,0,94.33723,37.08884Z"/>
        <path class="cls-3" d="M105.449,24.31411h.4034a3.93449,3.93449,0,0,1-.05061.5828.53345.53345,0,0,1-.46159.42591,6.51417,6.51417,0,0,1-1.11839.06381,8.689,8.689,0,0,1-1.4091-.07307.59664.59664,0,0,1-.46937-.36536,3.24206,3.24206,0,0,1-.12044-1.07637,4.58286,4.58286,0,0,1,.09083-1.08116.61954.61954,0,0,1,.56268-.46474,9.21609,9.21609,0,0,1,1.28166-.066,5.77311,5.77311,0,0,1,1.15412.08.6615.6615,0,0,1,.3.15082.49664.49664,0,0,1,.16007.26105,2.93226,2.93226,0,0,1,.03887.54409h-.38465q-.00241-.0793-.00239-.10719a.83465.83465,0,0,0-.0435-.3179.2916.2916,0,0,0-.16866-.14461,3.69164,3.69164,0,0,0-1.07414-.09319c-.40882,0-.715.01082-.92011.03264a.88307.88307,0,0,0-.40039.1064.503.503,0,0,0-.13127.30084,3.68583,3.68583,0,0,0-.042.63344q0,.19113.01637.49423c.01007.20133.021.34038.03189.41666a.41657.41657,0,0,0,.11421.26106.4935.4935,0,0,0,.28365.09873q.35331.0361,1.00884.03648c.13363,0,.30852-.00381.52463-.01241s.35437-.01626.41345-.02407a.75138.75138,0,0,0,.25726-.06911.24373.24373,0,0,0,.11578-.14078,2.04062,2.04062,0,0,0,.03887-.453Zm2.41724-2.04489h.41426v3.108h-.41426v-3.108Zm2.55168,0h.82853l1.68735,2.63471,1.65995-2.63471h.83316v3.108h-.41413V22.654h-.17342l-1.73464,2.72327h-.33735l-1.7533-2.72327h-.18188v2.72327H110.418v-3.108Zm7.14642,3.108v-3.108H120.611v.36456h-2.63232v.949h2.5205v.36444h-2.5205v1.06552h2.63471v.36457Zm5.01771-3.108h.69015l2.72339,2.72563h.09555V22.26922h.41426v3.108h-.7011l-2.717-2.71864h-.09095v2.71864h-.41426v-3.108Zm5.82986,0h3.53155v.36456h-1.55514v2.74348h-.41426V22.63378H128.412v-.36456Zm7.40839-.00926a8.32524,8.32524,0,0,1,1.12383.0513.85749.85749,0,0,1,.47718.19893.59905.59905,0,0,1,.143.2222,1.60329,1.60329,0,0,1,.07535.36073,6.68176,6.68176,0,0,1,.03421.743,5.20993,5.20993,0,0,1-.05366.868.8217.8217,0,0,1-.18571.43211.78389.78389,0,0,1-.44918.19894,6.82993,6.82993,0,0,1-1.026.05369c-.2338,0-.49263-.00384-.77789-.01165q-.42666-.01052-.56112-.0226a1.40562,1.40562,0,0,1-.3668-.07534.64592.64592,0,0,1-.23859-.1639.77227.77227,0,0,1-.18587-.40964,5.86891,5.86891,0,0,1-.04652-.89305,3.76325,3.76325,0,0,1,.10257-1.05391.63648.63648,0,0,1,.56272-.43513,10.52421,10.52421,0,0,1,1.37246-.06373Zm-.23859.373a6.24348,6.24348,0,0,0-.95675.05206.50749.50749,0,0,0-.25644.10181.42329.42329,0,0,0-.11037.23314,4.12786,4.12786,0,0,0-.05208.76086,6.89032,6.89032,0,0,0,.02867.75081.57623.57623,0,0,0,.10338.31553.33619.33619,0,0,0,.17105.09555,1.99457,1.99457,0,0,0,.35281.04589q.39871.02676.92647.02722a6.833,6.833,0,0,0,1.09278-.06147.36085.36085,0,0,0,.31934-.317,4.69692,4.69692,0,0,0,.05208-.79284,5.53752,5.53752,0,0,0-.04588-.86341.36927.36927,0,0,0-.3528-.30232,3.47275,3.47275,0,0,0-.40486-.03582Q136.22289,22.63493,135.58175,22.633Z"/>
        <g>
          <polygon class="cls-4" points="33.234 22.053 51.404 51.396 66.414 51.396 48.244 22.053 33.234 22.053"/>
          <polygon class="cls-5" points="41.267 39.297 33.708 51.396 18.698 51.396 33.792 27.227 41.267 39.297"/>
        </g>
      </g>
    </g>
  </g>
</svg>
