<svg xmlns="http://www.w3.org/2000/svg" width="174" height="74" viewBox="0 0 174 74">
  <defs>
    <style>
      .cls-1, .cls-2 {
        fill: #fff;
      }

      .cls-1 {
        opacity: 0;
      }
    </style>
  </defs>
  <title>bayer</title>
  <g id="Layer_2" data-name="Layer 2">
    <g id="Layer_2-2" data-name="Layer 2">
      <rect class="cls-1" width="174" height="74"/>
    </g>
    <g id="Layer_1-2" data-name="Layer 1">
      <g>
        <g id="g975">
          <path id="path6" class="cls-2" d="M117.6225,35.061a30.683,30.683,0,0,0-61.246,0,15.69029,15.69029,0,0,0,.162,1.935,30.1,30.1,0,0,0,5.737,14.386,30.563,30.563,0,0,0,24.724,12.524,26.914,26.914,0,0,1-26.825-24.967,15.5705,15.5705,0,0,1-.081-1.943,15.56793,15.56793,0,0,1,.081-1.939,26.914,26.914,0,0,1,26.825-24.961,30.563,30.563,0,0,1,24.725,12.522,30.1,30.1,0,0,1,5.737,14.378,15.77411,15.77411,0,0,1,.162,1.858c0-.646.081-1.293.081-1.939a14.93625,14.93625,0,0,0-.081-1.858"/>
          <path id="path8" class="cls-2" d="M56.3775,38.939a30.683,30.683,0,0,0,61.246,0,15.69016,15.69016,0,0,0-.162-1.939,30.09994,30.09994,0,0,0-5.737-14.382,30.563,30.563,0,0,0-24.728-12.524,26.914,26.914,0,0,1,26.829,24.967,23.311,23.311,0,0,1,0,3.878,26.853,26.853,0,0,1-26.829,24.968,30.563,30.563,0,0,1-24.721-12.524A30.1,30.1,0,0,1,56.5385,37a15.77856,15.77856,0,0,1-.162-1.858c0,.646-.081,1.293-.081,1.939a14.93634,14.93634,0,0,0,.081,1.858"/>
        </g>
        <g id="g28">
          <path id="path858" class="cls-2" d="M83.20451,12.194v8.484h5.9a2.553,2.553,0,0,0,2.586-2.51957q.00041-.03321,0-.06643a2.63007,2.63007,0,0,0-.808-1.858,3.284,3.284,0,0,0,.646-1.535,2.517,2.517,0,0,0-2.5-2.5Zm1.939,1.778h3.555a.727.727,0,0,1,0,1.454h-3.555Zm0,3.232h3.636a.808.808,0,0,1,0,1.616h-3.636Z"/>
          <path id="path852" class="cls-2" d="M86.03049,22.296l-4.2,8.484h2.182l.646-1.454h4.767l.646,1.454h2.182l-4.284-8.484Zm.97,2.182,1.454,3.07h-2.909Z"/>
          <path id="path848" class="cls-2" d="M89.90951,32.636h2.424l-4.282,5.494v2.99h-2.02V38.13l-4.282-5.494h2.424l2.909,3.878Z"/>
          <path id="path844" class="cls-2" d="M103.80949,32.636V41.12h2.02V37.888h1.535l2.424,3.232h2.421l-2.5-3.313a2.646,2.646,0,0,0-.727-5.171Zm2.1,1.778h2.909a.869.869,0,0,1,.808.808.81.81,0,0,1-.808.808h-2.909Z"/>
          <path id="path858-0" class="cls-2" d="M62.5185,32.636V41.12h5.9a2.553,2.553,0,0,0,2.586-2.51956q.00044-.03324,0-.06644a2.63,2.63,0,0,0-.808-1.858,3.28408,3.28408,0,0,0,.646-1.535,2.517,2.517,0,0,0-2.5-2.5Zm1.939,1.778h3.555a.727.727,0,1,1,0,1.454h-3.555Zm0,3.232h3.636a.808.808,0,0,1,0,1.616h-3.636Z"/>
          <path id="path852-8" class="cls-2" d="M76.41651,32.636l-4.2,8.484h2.182l.649-1.451h4.767l.646,1.454h2.182l-4.282-8.484Zm.97,2.182,1.454,3.07h-2.909Z"/>
          <path id="path830-7" class="cls-2" d="M101.14051,32.636V34.46h-5.656v1.427h5.494v1.824h-5.494v1.586h5.656v1.824h-7.676V32.637Z"/>
          <path id="path844-7" class="cls-2" d="M83.12247,53.483v8.484h2.02V58.735h1.535l2.424,3.232h2.424l-2.5-3.313a2.646,2.646,0,0,0-.727-5.171Zm2.1,1.778h2.909a.869.869,0,0,1,.808.808.81.81,0,0,1-.808.808h-2.909Z"/>
          <path id="path830-7-6" class="cls-2" d="M90.87949,42.96v1.824h-5.656v1.427h5.494v1.824h-5.494v1.586h5.656v1.824h-7.676V42.961Z"/>
        </g>
      </g>
    </g>
  </g>
</svg>
