<?xml version="1.0" encoding="utf-8"?>
<!-- Generator: Adobe Illustrator 24.0.0, SVG Export Plug-In . SVG Version: 6.00 Build 0)  -->
<svg version="1.1" id="Layer_1" xmlns="http://www.w3.org/2000/svg" xmlns:xlink="http://www.w3.org/1999/xlink" x="0px" y="0px"
	 viewBox="0 0 40 40" style="enable-background:new 0 0 40 40;" xml:space="preserve">
<style type="text/css">
	.st0{fill:#FFFFFF;fill-opacity:0;}
	.st1{fill:#432AF4;}
</style>
<title>brite-icon</title>
<g id="Layer_2_1_">
	<g id="Layer_2-2">
		<rect class="st0" width="40" height="40"/>
	</g>
	<g id="Layer_1-2">
		<g>
			<g>
				<path class="st1" d="M26.2,13.8v-8c-0.7-0.1-1.4-0.2-2.1-0.2h-8.2c-5.7,0-10.3,4.6-10.3,10.3c0,0,0,0,0,0v8.2
					c0,0.7,0.1,1.4,0.2,2.1h8V13.8H26.2z"/>
				<path class="st1" d="M34.2,13.8h-8v12.4H13.8v8c0.7,0.1,1.4,0.2,2.1,0.2h8.2c5.7,0,10.3-4.6,10.3-10.3c0,0,0,0,0,0v-8.2
					C34.4,15.2,34.3,14.5,34.2,13.8z"/>
			</g>
		</g>
	</g>
</g>
</svg>
