<svg xmlns="http://www.w3.org/2000/svg" xmlns:xlink="http://www.w3.org/1999/xlink" width="174" height="74" viewBox="0 0 174 74">
  <defs>
    <style>
      .cls-1 {
        fill: #fff;
        opacity: 0;
      }

      .cls-2 {
        fill-rule: evenodd;
        fill: url(#linear-gradient);
      }
    </style>
    <linearGradient id="linear-gradient" x1="87" y1="5.4" x2="87" y2="66.58068" gradientUnits="userSpaceOnUse">
      <stop offset="0" stop-color="#827aff"/>
      <stop offset="1" stop-color="#7ca3ff"/>
    </linearGradient>
  </defs>
  <title>btg</title>
  <g id="Layer_2" data-name="Layer 2">
    <g id="Layer_2-2" data-name="Layer 2">
      <rect class="cls-1" width="174" height="74"/>
    </g>
    <g id="Layer_1-2" data-name="Layer 1">
      <path id="Btg-logo-blue" class="cls-2" d="M150.0945,32.6205h-3.534l-.293,1.3h3.827c3.5,0,4.683.953,4.683,3.775v1.366c-.868-.888-2.4-1.339-4.573-1.339-3.461,0-5.144,1.5-5.144,4.584v.225c0,2.892,1.657,4.358,4.924,4.358h.88c3.461,0,5.216-1.467,5.216-4.358v-4.841C156.0815,34.0895,154.3465,32.6205,150.0945,32.6205Zm4.683,10.093c0,2.07-1.107,2.876-3.949,2.876h-.55c-2.743,0-3.913-.916-3.913-3.063v-.225c0-2.332,1.115-3.326,3.729-3.326h.22c3.128,0,4.463.961,4.463,3.213v.525Zm-95.438-7.551.7-3.461h-5.989v-4.728l-4.2.649v14.122c0,4.882,1.873,6.335,6.981,6.335h2.236l.7-3.43h-2.63c-2.327,0-3.083-.586-3.083-3.183v-6.3h5.29Zm-28.864-9.827v15.172c0,5.624,2.538,7.972,8.07,7.972,5.742,0,8.281-2.286,8.281-7.941v-1.452c0-5.315-2.358-7.911-7.5-7.911a7.61,7.61,0,0,0-4.625,1.3v-7.82l-4.231.679Zm8.22,9.239c2.9,0,3.929,1.174,3.929,4.666v1.3c0,3.4-1.028,4.573-3.99,4.573s-3.99-1.175-3.99-4.6v-1.769c0-3.121,1.028-4.172,4.05-4.172Zm30.8-3.4c-5.531,0-8.07,2.379-8.07,7.817v.834c0,5.16,2.206,7.663,7.4,7.663a7.114,7.114,0,0,0,4.5-1.267v.623c0,2.9-1.239,3.862-4.141,3.862h-1.73a1.978,1.978,0,0,0-2.043,1.2h0a27.093,27.093,0,0,1-23.067,12.987c-15.044,0-27.283-12.512-27.283-27.893s12.239-27.894,27.283-27.894a27.278,27.278,0,0,1,24.68,15.993h1.254a28.431,28.431,0,0,0-25.934-17.155c-15.671,0-28.42,13.034-28.42,29.055s12.749,29.056,28.42,29.056a28.168,28.168,0,0,0,23.023-12.011h4.066c5.35,0,8.1-2.07,8.1-7.354v-7.975c0-5.253-2.629-7.54-8.039-7.54Zm3.869,9.177c0,2.9-1,3.8-3.868,3.8-3.234,0-3.869-1.143-3.869-4.511v-.525c0-3.338.574-4.543,3.869-4.543,3.234,0,3.869,1.174,3.869,4.573v1.205Zm85.411,6.532h1.3V27.2605h-1.3v19.623Zm-29.381-12.967.293-1.3h-5.833v-3.7l-1.34.245v12.69c0,3.614,1.325,4.958,4.887,4.958h1.923l.244-1.3h-2.17c-2.685,0-3.546-.872-3.546-3.589v-8.01h5.54Zm12.074,7.336c0,3.34-1.022,4.412-4.206,4.412-3.09,0-4.133-1.113-4.133-4.412v-8.632h-1.34v8.632c0,4.107,1.535,5.707,5.473,5.707,3.914,0,5.51-1.653,5.51-5.707v-8.632h-1.3Zm-29.493-.937v-1.2c0-3.839,1.283-5.2,4.9-5.2h3.059l.292-1.3h-3.35c-4.317,0-6.244,2-6.244,6.495v1.2c0,4.492,1.926,6.5,6.244,6.5h3.094l.293-1.3h-3.386c-3.529,0-4.9-1.458-4.9-5.2Zm-9.651-7.695h-3.536l-.292,1.3h3.828c3.474,0,4.646.953,4.646,3.775v1.366c-.867-.888-2.4-1.339-4.573-1.339-3.46,0-5.143,1.5-5.143,4.584v.225c0,2.892,1.668,4.358,4.96,4.358h.88c3.438,0,5.18-1.467,5.18-4.358v-4.841C108.2735,34.0895,106.5495,32.6205,102.3245,32.6205Zm4.646,10.093c0,2.1-1.06,2.876-3.912,2.876h-.55c-2.768,0-3.949-.916-3.949-3.063v-.225c0-2.332,1.115-3.326,3.729-3.326h.22c3.128,0,4.462.961,4.462,3.213v.525Zm-17.772-10.318c-4.134,0-6.06,2.088-6.06,6.57v12.193h1.3v-6.261a5.91,5.91,0,0,0,4.829,1.988c4.115,0,5.95-2.027,5.95-6.57v-1.387c0-4.518-1.858-6.533-6.024-6.533Zm4.682,7.919c0,3.845-1.249,5.274-4.609,5.274-3.18,0-4.792-1.585-4.792-4.712v-1.911c0-3.747,1.367-5.275,4.719-5.275,3.37,0,4.682,1.468,4.682,5.237Z"/>
    </g>
  </g>
</svg>
