<svg xmlns="http://www.w3.org/2000/svg" xmlns:xlink="http://www.w3.org/1999/xlink" width="174" height="74" viewBox="0 0 174 74">
  <defs>
    <style>
      .cls-1 {
        fill: #fff;
        opacity: 0;
      }

      .cls-2 {
        fill: url(#linear-gradient);
      }

      .cls-3 {
        fill: url(#linear-gradient-2);
      }

      .cls-4 {
        fill: url(#linear-gradient-3);
      }

      .cls-5 {
        fill: url(#linear-gradient-4);
      }

      .cls-6 {
        fill: url(#linear-gradient-5);
      }

      .cls-7 {
        fill: url(#linear-gradient-6);
      }

      .cls-8 {
        fill: url(#linear-gradient-10);
      }
    </style>
    <linearGradient id="linear-gradient" x1="116.55584" y1="20.6" x2="116.55584" y2="60.22474" gradientUnits="userSpaceOnUse">
      <stop offset="0" stop-color="#827aff"/>
      <stop offset="1" stop-color="#7ca3ff"/>
    </linearGradient>
    <linearGradient id="linear-gradient-2" x1="144.5153" y1="20.6" x2="144.5153" y2="60.22474" xlink:href="#linear-gradient"/>
    <linearGradient id="linear-gradient-3" x1="87.02483" y1="20.6" x2="87.02483" y2="60.22474" xlink:href="#linear-gradient"/>
    <linearGradient id="linear-gradient-4" x1="58.05851" y1="20.6" x2="58.05851" y2="60.22474" xlink:href="#linear-gradient"/>
    <linearGradient id="linear-gradient-5" x1="30.55692" y1="20.6" x2="30.55692" y2="60.22474" xlink:href="#linear-gradient"/>
    <linearGradient id="linear-gradient-6" x1="58.70501" y1="20.6" x2="58.70501" y2="60.22474" xlink:href="#linear-gradient"/>
    <linearGradient id="linear-gradient-10" x1="58.70351" y1="20.6" x2="58.70351" y2="60.22474" xlink:href="#linear-gradient"/>
  </defs>
  <title>bunge</title>
  <g id="Layer_2" data-name="Layer 2">
    <g id="Layer_2-2" data-name="Layer 2">
      <rect class="cls-1" width="174" height="74"/>
    </g>
    <g id="Layer_1-2" data-name="Layer 1">
      <g id="Grupo_38" data-name="Grupo 38">
        <path id="Caminho_44" data-name="Caminho 44" class="cls-2" d="M130.069,32.796c-.423,1.028-.849,2.123-1.309,3.187-3.823-3.259-9.346-3.788-14.195-2.619-2.939.671-6.09,3.079-6.656,6.265-.531,3.221.107,6.513,2.726,8.531,3.717,2.833,9.381,2.868,13.876,1.842l1.2-.46c0-.868-.016-2.715-.016-5.948a30.04292,30.04292,0,0,0-3.03.176c0-.744.072-1.522,0-2.265a60.62123,60.62123,0,0,0,7.146.246v9.1a40.42,40.42,0,0,1-17.41.919c-3.789-.708-8-3.327-8.993-7.362a9.24,9.24,0,0,1,3.221-9.879c4.921-3.68,11.754-4,17.95-3.186a19.03909,19.03909,0,0,1,5.486,1.452"/>
        <path id="Caminho_45" data-name="Caminho 45" class="cls-3" d="M154.604,31.5a8.46575,8.46575,0,0,0-.037,2.32,44.70906,44.70906,0,0,0-6.55-.353h-9.77c0,6.057-.035,4.177-.035,6.265,5.167.037,10.336-.033,15.54-.1a6.33591,6.33591,0,0,0-.03,2.152c-5.169-.178-10.3,0-15.47,0,0,7.472-.035,5.346,0,7.893,3.185.071,6.336,0,9.524-.035a53.61232,53.61232,0,0,0,7.174-.367,11.85927,11.85927,0,0,0,.051,2.752H134.042c0-7.219-.031-13.791.005-20.587,8.532,0,1.242.055,20.557.055"/>
        <path id="Caminho_46" data-name="Caminho 46" class="cls-4" d="M99.158,31.866V52.357h-1.69c-6.408-5.1-13.136-10.321-19.579-15.242-.011,1.3-.005,6.111-.005,15.032a14.16726,14.16726,0,0,0-2.993,0V31.812c-.035-.031,2.266,0,2.361,0,.577,0,12.62,9.48,18.922,14.331.012-7.724,0-6.087,0-14.277a20.73582,20.73582,0,0,0,2.985,0"/>
        <path id="Caminho_47" data-name="Caminho 47" class="cls-5" d="M70.19,31.78V44.342a7.879,7.879,0,0,1-4.69,6.831,20.658,20.658,0,0,1-11.684,1.2c-2.866-.459-6.123-1.734-7.292-4.813a10.75022,10.75022,0,0,1-.6-3.4l.04-12.374a11.86623,11.86623,0,0,0,4.115,0c0,10.394-.066,8.514.077,12.762a5.715,5.715,0,0,0,3.486,5.276,15.3,15.3,0,0,0,9.169.178,6.47,6.47,0,0,0,4.035-4.108,15.51755,15.51755,0,0,0,.39-2.9V31.826a6.94915,6.94915,0,0,0,2.957-.046"/>
        <path id="Caminho_48" data-name="Caminho 48" class="cls-6" d="M35.619,43.027c-3.645-1.274-7.668-.736-11.764-.739l-.024,8.072c5.76.019,6.195.031,9.169-.182a5.351,5.351,0,0,0,4.391-2.48,3.531,3.531,0,0,0-.355-3.715,3.14506,3.14506,0,0,0-1.417-.956m-2.335-9.028c-7.4-.056-6.413-.072-9.459,0,0,5.1-.028.4-.028,6.3a50.06816,50.06816,0,0,0,9.487-.425c1.415-.248,3.149-.992,3.575-2.621a2.342,2.342,0,0,0-.638-2.369,4.571,4.571,0,0,0-2.938-.886m5.982-.814a3.543,3.543,0,0,1,1.489,3.758c-.424,2.265-2.868,3.54-4.744,4.177,2.053.355,4.32.781,5.487,2.763a5.1,5.1,0,0,1-.566,5.7c-2.619,2.866-6.585,2.619-10.3,2.8L19.01,52.357c0-10.621-.011-11.672-.011-20.577,6.605,0,7.806.023,11.771.023,2.8.037,6.09-.07,8.5,1.382"/>
        <path id="Caminho_49" data-name="Caminho 49" class="cls-7" d="M58.704,21.271a7.852,7.852,0,0,0-4.766,1.606h9.534a7.846,7.846,0,0,0-4.768-1.606"/>
        <path id="Caminho_50" data-name="Caminho 50" class="cls-7" d="M66.582,29.147a7.54848,7.54848,0,0,0-.061-.958H50.887a8.23293,8.23293,0,0,0-.059.958c0,.274.014.545.04.811H66.539a7.70031,7.70031,0,0,0,.042-.811"/>
        <path id="Caminho_51" data-name="Caminho 51" class="cls-7" d="M58.704,37.025a7.852,7.852,0,0,0,4.958-1.755H53.748a7.85,7.85,0,0,0,4.956,1.755"/>
        <path id="Caminho_52" data-name="Caminho 52" class="cls-7" d="M65.168,24.649H52.242a7.81993,7.81993,0,0,0-.928,1.769H66.096a7.89007,7.89007,0,0,0-.928-1.769"/>
        <path id="Caminho_53" data-name="Caminho 53" class="cls-8" d="M51.262,31.728a7.78284,7.78284,0,0,0,.875,1.771H65.268a7.78736,7.78736,0,0,0,.877-1.771Z"/>
      </g>
    </g>
  </g>
</svg>
