<svg xmlns="http://www.w3.org/2000/svg" width="165" height="14" viewBox="0 0 165 14">
  <defs>
    <style>
      .cls-1, .cls-3 {
        fill: #fff;
      }

      .cls-1 {
        opacity: 0;
      }

      .cls-2 {
        fill: #9a9aa0;
      }
    </style>
  </defs>
  <title>certified-lenovo-partner-01_1</title>
  <g id="Layer_2" data-name="Layer 2">
    <g id="Layer_2-2" data-name="Layer 2">
      <rect class="cls-1" width="165" height="14"/>
    </g>
    <g id="Layer_1-2" data-name="Layer 1">
      <g>
        <g id="Grupo_226" data-name="Grupo 226">
          <path id="Caminho_73" data-name="Caminho 73" class="cls-2" d="M4.28239,10.90609a4.81948,4.81948,0,0,1-1.911-.327,2.53067,2.53067,0,0,1-1.166-.98706,4.41652,4.41652,0,0,1-.581-1.651,14.17024,14.17024,0,0,1-.163-2.28,14.544,14.544,0,0,1,.163-2.318,4.36424,4.36424,0,0,1,.587-1.657,2.64574,2.64574,0,0,1,1.168-1,4.70213,4.70213,0,0,1,1.917-.334c.346,0,.7.017,1.056.052s.691.08,1,.13306.581.106.809.156l-.06,1.173c-.207-.03894-.468-.075-.78-.111s-.628-.067-.95-.1a8.62825,8.62825,0,0,0-.885-.044,3.06429,3.06429,0,0,0-1.307.238,1.71,1.71,0,0,0-.781.72595,3.43791,3.43791,0,0,0-.371,1.24805,14.8061,14.8061,0,0,0-.1,1.829,14.48335,14.48335,0,0,0,.1,1.8,3.48065,3.48065,0,0,0,.363,1.24194,1.64621,1.64621,0,0,0,.78.714,3.30065,3.30065,0,0,0,1.331.229q.623,0,1.36-.074t1.256-.162l.044,1.188c-.238.04895-.518.1-.841.147s-.658.09-1.01.12S4.61735,10.90609,4.28239,10.90609Z"/>
          <path id="Caminho_74" data-name="Caminho 74" class="cls-2" d="M11.45939,10.90621a3.33828,3.33828,0,0,1-1.806-.422,2.391,2.391,0,0,1-.957-1.271,6.5,6.5,0,0,1-.3-2.125,5.45656,5.45656,0,0,1,.394-2.259,2.64816,2.64816,0,0,1,1.106-1.264,3.4287,3.4287,0,0,1,1.711-.4,3.034,3.034,0,0,1,2.31.82495,3.776,3.776,0,0,1,.78,2.653l-.075.936h-4.814a2.84519,2.84519,0,0,0,.4,1.613,1.607,1.607,0,0,0,1.4.542c.287,0,.6-.007.943-.021s.679-.033,1.017-.053.624-.03894.862-.058l.03,1.04c-.248.03894-.545.082-.892.126s-.706.08-1.077.1S11.77641,10.90621,11.45939,10.90621Zm-1.649-4.353h3.51a2.89991,2.89991,0,0,0-.408-1.769,1.57692,1.57692,0,0,0-1.3-.505,2.00037,2.00037,0,0,0-.982.223,1.42575,1.42575,0,0,0-.611.72095,3.56467,3.56467,0,0,0-.21,1.33008Z"/>
          <path id="Caminho_75" data-name="Caminho 75" class="cls-2" d="M16.4514,10.75814v-7.446h1.378V4.278a6.04235,6.04235,0,0,1,.683-.415,9.34182,9.34182,0,0,1,.915-.424,4.94679,4.94679,0,0,1,.987-.29V4.53a7.8737,7.8737,0,0,0-.972.25305q-.50006.16517-.923.35c-.281.125-.513.236-.691.334v5.291Z"/>
          <path id="Caminho_76" data-name="Caminho 76" class="cls-2" d="M24.28239,10.919a2.799,2.799,0,0,1-1.256-.23706,1.364,1.364,0,0,1-.668-.82495,5.32045,5.32045,0,0,1-.2-1.656V4.484h-1.01V3.311h1.01V1.12606h1.367V3.31111h2.215v1.173h-2.216v3.33a7.49774,7.49774,0,0,0,.067,1.136.87911.87911,0,0,0,.275.574,1.059,1.059,0,0,0,.654.163c.1,0,.224,0,.371-.007s.3-.016.461-.03l.417-.037.074,1.129c-.148.031-.32.057-.512.082s-.385.047-.572.068A4.25589,4.25589,0,0,1,24.28239,10.919Z"/>
          <path id="Caminho_77" data-name="Caminho 77" class="cls-2" d="M27.18339,1.81111V.37007h1.379v1.441Zm0,8.947v-7.446h1.379v7.44605Z"/>
          <path id="Caminho_78" data-name="Caminho 78" class="cls-2" d="M31.0164,10.75814v-6.269h-.878v-1.173h.878v-.579a5.7235,5.7235,0,0,1,.192-1.673,1.32607,1.32607,0,0,1,.654-.83106,2.75915,2.75915,0,0,1,1.219-.23c.128,0,.3,0,.513.014s.419.022.615.037a3.64349,3.64349,0,0,1,.432.051l-.016,1.114q-.25305-.013-.608-.01294h-.581a1.277,1.277,0,0,0-.624.126.724.724,0,0,0-.319.46106,3.50694,3.50694,0,0,0-.1.943v.579h2.05v1.173h-2.05v6.27295Z"/>
          <path id="Caminho_79" data-name="Caminho 79" class="cls-2" d="M35.82737,1.81111V.37007h1.381v1.441Zm0,8.947v-7.446h1.381v7.44605Z"/>
          <path id="Caminho_80" data-name="Caminho 80" class="cls-2" d="M42.0894,10.90621a3.33705,3.33705,0,0,1-1.807-.422,2.40042,2.40042,0,0,1-.959-1.271,6.539,6.539,0,0,1-.3-2.125,5.45457,5.45457,0,0,1,.4-2.259,2.64231,2.64231,0,0,1,1.106-1.264,3.4264,3.4264,0,0,1,1.709-.4,3.03623,3.03623,0,0,1,2.311.82495,3.77707,3.77707,0,0,1,.779,2.653l-.075.936h-4.814a2.835,2.835,0,0,0,.4,1.613,1.60589,1.60589,0,0,0,1.4.542c.288,0,.6-.007.943-.021s.681-.033,1.017-.053.625-.03894.863-.058l.029,1.04c-.247.03894-.544.082-.892.126s-.7.08-1.076.1S42.40538,10.90621,42.0894,10.90621Zm-1.65-4.353h3.507a2.88328,2.88328,0,0,0-.409-1.769,1.57522,1.57522,0,0,0-1.3-.505,1.98973,1.98973,0,0,0-.98.223,1.418,1.418,0,0,0-.611.72095A3.52829,3.52829,0,0,0,40.43937,6.55318Z"/>
          <path id="Caminho_81" data-name="Caminho 81" class="cls-2" d="M49.47441,10.90609a3.61316,3.61316,0,0,1-.879-.1,2.0363,2.0363,0,0,1-1.328-1.025,3.63189,3.63189,0,0,1-.372-1.093,8.66883,8.66883,0,0,1-.125-1.6,6.47533,6.47533,0,0,1,.312-2.179,2.49183,2.49183,0,0,1,.995-1.307,3.34589,3.34589,0,0,1,1.828-.438q.267,0,.593.03c.217.02.432.04395.64.074s.371.05395.49.074V.14217h1.4V10.75423h-1.367l-.014-.475a4.367,4.367,0,0,1-.588.281,4.87173,4.87173,0,0,1-.781.245A3.56948,3.56948,0,0,1,49.47441,10.90609Zm.251-1.2a3.21629,3.21629,0,0,0,.714-.082,5.54312,5.54312,0,0,0,.676-.2q.31951-.11847.512-.208V4.50508c-.109-.01794-.26-.038-.452-.06005l-.6-.059c-.2-.01795-.388-.03-.558-.03a1.752,1.752,0,0,0-1.1.311,1.7153,1.7153,0,0,0-.572.923,5.6089,5.6089,0,0,0-.171,1.5,6.0907,6.0907,0,0,0,.119,1.337,2.08065,2.08065,0,0,0,.335.787,1.11627,1.11627,0,0,0,.5.387,1.73588,1.73588,0,0,0,.59692.10205Z"/>
          <path id="Caminho_89" data-name="Caminho 89" class="cls-2" d="M118.15739,13.9991V3.31307h1.381v.519a5.77511,5.77511,0,0,1,.58-.29,6.02758,6.02758,0,0,1,.759-.267,2.88016,2.88016,0,0,1,.773-.111,2.76776,2.76776,0,0,1,1.567.4,2.34788,2.34788,0,0,1,.892,1.241,6.77576,6.77576,0,0,1,.289,2.162,6.58248,6.58248,0,0,1-.334,2.312,2.26321,2.26321,0,0,1-1.054,1.248,3.99968,3.99968,0,0,1-1.866.37805,7.067,7.067,0,0,1-.9-.059c-.3-.041-.538-.074-.706-.106v3.257Zm2.853-4.281a2.15628,2.15628,0,0,0,1.181-.283,1.51179,1.51179,0,0,0,.618-.892,5.83089,5.83089,0,0,0,.178-1.589,3.543,3.543,0,0,0-.417-2,1.367,1.367,0,0,0-1.174-.573,3.017,3.017,0,0,0-.676.082,6.38135,6.38135,0,0,0-.661.194,2.56617,2.56617,0,0,0-.521.244v4.682c.15.02.365.047.647.082a6.66718,6.66718,0,0,0,.827.053Z"/>
          <path id="Caminho_90" data-name="Caminho 90" class="cls-2" d="M127.9224,10.90621a2.108,2.108,0,0,1-1.605-.579,2.39314,2.39314,0,0,1-.549-1.709,2.45656,2.45656,0,0,1,.268-1.226,1.68359,1.68359,0,0,1,.795-.70605,3.74286,3.74286,0,0,1,1.314-.282l2.154-.207v-.581a1.29983,1.29983,0,0,0-.312-.988,1.32614,1.32614,0,0,0-.934-.28894c-.258,0-.559.01-.907.029s-.688.046-1.025.074-.639.06006-.906.09l-.06-1.01q.372-.08788.883-.16394c.342-.05.7-.094,1.079-.133a9.91392,9.91392,0,0,1,1.039-.06006,3.56021,3.56021,0,0,1,1.443.25305,1.66,1.66,0,0,1,.832.787,3.09346,3.09346,0,0,1,.268,1.383v3.656a.556.556,0,0,0,.245.438,1.28807,1.28807,0,0,0,.541.18506l-.044,1.026c-.139,0-.277,0-.417-.007a3.451,3.451,0,0,1-.385-.037c-.118-.02-.232-.046-.342-.074a1.65886,1.65886,0,0,1-.422-.171,2.21388,2.21388,0,0,1-.351-.261,6.47486,6.47486,0,0,1-.7.254,8.03122,8.03122,0,0,1-.921.222A5.56361,5.56361,0,0,1,127.9224,10.90621Zm.283-1.1a4.12562,4.12562,0,0,0,.766-.074c.261-.04895.512-.105.749-.172s.432-.121.579-.17v-2.23l-1.976.194a1.073,1.073,0,0,0-1.159,1.219,1.39974,1.39974,0,0,0,.261.906.93192.93192,0,0,0,.779.3269Z"/>
          <path id="Caminho_91" data-name="Caminho 91" class="cls-2" d="M133.91239,10.75814v-7.446h1.381V4.278a5.9557,5.9557,0,0,1,.685-.415,9.1675,9.1675,0,0,1,.913-.424,4.96476,4.96476,0,0,1,.98895-.29V4.53a7.79532,7.79532,0,0,0-.973.25305q-.5.16517-.922.35t-.692.334v5.291Z"/>
          <path id="Caminho_92" data-name="Caminho 92" class="cls-2" d="M141.7454,10.919a2.79887,2.79887,0,0,1-1.256-.23706,1.367,1.367,0,0,1-.66894-.82495,5.33323,5.33323,0,0,1-.2-1.656V4.484h-1.01V3.311h1.01V1.12606h1.367V3.31111h2.214v1.173h-2.214v3.33a7.49127,7.49127,0,0,0,.067,1.136.878.878,0,0,0,.277.574,1.05479,1.05479,0,0,0,.653.163c.1,0,.223,0,.37-.007s.3-.016.462-.03l.416-.037.073,1.129c-.148.031-.318.057-.512.082s-.384.047-.571.068A4.25773,4.25773,0,0,1,141.7454,10.919Z"/>
          <path id="Caminho_93" data-name="Caminho 93" class="cls-2" d="M144.64237,10.75814V3.31319h1.381v.519a4.03985,4.03985,0,0,1,.609-.30005,7.48738,7.48738,0,0,1,.788-.26,3.10936,3.10936,0,0,1,.8-.111,3.465,3.465,0,0,1,1.27.19995,1.63432,1.63432,0,0,1,.78.64,3.04119,3.04119,0,0,1,.4,1.136,10.24661,10.24661,0,0,1,.12,1.694v3.92395h-1.4v-3.848a8.39235,8.39235,0,0,0-.1-1.473,1.27823,1.27823,0,0,0-.416-.794,1.5094,1.5094,0,0,0-.938-.245,3.495,3.495,0,0,0-.7.076,4.64629,4.64629,0,0,0-.683.191c-.214.08-.39.156-.528.224v5.87Z"/>
          <path id="Caminho_94" data-name="Caminho 94" class="cls-2" d="M155.57939,10.90621a3.33808,3.33808,0,0,1-1.807-.422,2.40056,2.40056,0,0,1-.958-1.271,6.54067,6.54067,0,0,1-.3-2.125,5.45458,5.45458,0,0,1,.4-2.259,2.6416,2.6416,0,0,1,1.105-1.264,3.43043,3.43043,0,0,1,1.709-.4,3.03484,3.03484,0,0,1,2.311.82495,3.77566,3.77566,0,0,1,.779,2.653l-.074.936h-4.814a2.8473,2.8473,0,0,0,.4,1.613,1.60583,1.60583,0,0,0,1.4.542c.28894,0,.6-.007.94495-.021s.679-.033,1.016-.053.625-.03894.864-.058l.029,1.04c-.24694.03894-.54394.082-.892.126s-.7.08-1.07605.1S155.8964,10.90621,155.57939,10.90621Zm-1.649-4.353h3.507a2.89994,2.89994,0,0,0-.408-1.769,1.5792,1.5792,0,0,0-1.3-.505,1.99253,1.99253,0,0,0-.98.223,1.42181,1.42181,0,0,0-.611.72095A3.55745,3.55745,0,0,0,153.93034,6.55318Z"/>
          <path id="Caminho_95" data-name="Caminho 95" class="cls-2" d="M160.57341,10.75814v-7.446h1.381V4.278a6.084,6.084,0,0,1,.684-.415,9.117,9.117,0,0,1,.91394-.424,4.94618,4.94618,0,0,1,.98706-.29V4.53a7.846,7.846,0,0,0-.97205.25305c-.334.11-.64.22705-.923.35s-.512.236-.691.334v5.291Z"/>
        </g>
        <g id="layer1">
          <g id="g23944">
            <g id="g13605">
              <path id="path13607" class="cls-3" d="M81.10452,2.599a3.50719,3.50719,0,0,0-2.75232,1.3524l.00046-.00183L78.3522,3.95l.00046-1.2094H76.03484v8.44064H78.3522V6.37836a1.80869,1.80869,0,0,1,1.91118-1.78325,1.85919,1.85919,0,0,1,1.95139,1.78325v4.80286h2.31782V5.94888A3.24881,3.24881,0,0,0,81.10452,2.599"/>
            </g>
            <g id="g13609">
              <path id="path13611" class="cls-3" d="M101.00576,2.74094,98.91045,8.49048,96.81514,2.74094H94.16745l3.47284,8.43789h2.53987L103.653,2.74094Z"/>
            </g>
            <g id="g13613">
              <path id="path13615" class="cls-3" d="M69.11539,5.28369a2.15638,2.15638,0,0,1,1.78279-.84114,1.93916,1.93916,0,0,1,1.79651,1.18107l-4.04944,1.68a2.71459,2.71459,0,0,1,.47014-2.01992m4.45287,3.30242a3.52454,3.52454,0,0,1-2.42244.89414,2.56817,2.56817,0,0,1-1.86915-.68443l5.92544-2.45808a4.57364,4.57364,0,0,0-1.012-2.35665,4.23431,4.23431,0,0,0-3.33394-1.38256,4.3233,4.3233,0,0,0-4.47024,4.36333c0,2.54763,1.92626,4.36286,4.72564,4.36286A5.55983,5.55983,0,0,0,75.034,9.71281Z"/>
            </g>
            <g id="g13617">
              <path id="path13619" class="cls-3" d="M66.165,9.053H60.897V.21624H58.54769v10.965H66.165Z"/>
            </g>
            <g id="g13621">
              <path id="path13623" class="cls-3" d="M107.81487,4.58469a2.22245,2.22245,0,0,0-2.2342,2.3763,2.29851,2.29851,0,0,0,2.26527,2.3763,2.23737,2.23737,0,0,0,2.23421-2.3763,2.29822,2.29822,0,0,0-2.26528-2.3763m0,6.73871A4.36576,4.36576,0,1,1,112.36644,6.961a4.37944,4.37944,0,0,1-4.55157,4.36241"/>
            </g>
            <g id="g13625">
              <path id="path13627" class="cls-3" d="M89.97,4.58469A2.2221,2.2221,0,0,0,87.73627,6.961a2.29823,2.29823,0,0,0,2.26528,2.3763A2.23728,2.23728,0,0,0,92.23529,6.961,2.29822,2.29822,0,0,0,89.97,4.58469m0,6.73871A4.36577,4.36577,0,1,1,94.522,6.961,4.379,4.379,0,0,1,89.97,11.3234"/>
            </g>
          </g>
        </g>
      </g>
    </g>
  </g>
</svg>
