<svg xmlns="http://www.w3.org/2000/svg" width="90" height="30" viewBox="0 0 90 30">
  <defs>
    <style>
      .cls-1 {
        fill: #fff;
        opacity: 0;
      }

      .cls-2 {
        fill: #9a9aa0;
      }
    </style>
  </defs>
  <title>certified-lenovo-partner-03</title>
  <g id="Layer_2" data-name="Layer 2">
    <g id="Layer_2-2" data-name="Layer 2">
      <rect class="cls-1" width="90" height="30"/>
    </g>
    <g id="Layer_1-2" data-name="Layer 1">
      <g>
        <g id="layer1">
          <g id="g23944">
            <g id="g13605">
              <path id="path13607" class="cls-2" d="M38.11931,4.56668a5.54432,5.54432,0,0,0-4.351,2.13793l.00072-.00288-.00072.00072.00072-1.91187H30.10494V18.1339h3.66339V10.54134a2.85926,2.85926,0,0,1,3.02127-2.819,2.93909,2.93909,0,0,1,3.08484,2.819V18.1339h3.66411V9.8624a5.13587,5.13587,0,0,0-5.41924-5.29572"/>
            </g>
            <g id="g13609">
              <path id="path13611" class="cls-2" d="M69.58005,4.79115,66.2677,13.88027,62.95534,4.79115H58.76975l5.49,13.339H68.2749l5.49-13.339Z"/>
            </g>
            <g id="g13613">
              <path id="path13615" class="cls-2" d="M19.16637,8.81084a3.40887,3.40887,0,0,1,2.81832-1.32971,3.06546,3.06546,0,0,1,2.84,1.86708L18.42315,12.004a4.29129,4.29129,0,0,1,.74322-3.19318m7.0393,5.22061a5.57181,5.57181,0,0,1-3.82951,1.41349,4.05988,4.05988,0,0,1-2.95483-1.082l9.36719-3.88584a7.23026,7.23026,0,0,0-1.59984-3.7255A6.6938,6.6938,0,0,0,21.91824,4.566a6.83445,6.83445,0,0,0-7.06675,6.89773c0,4.02741,3.04512,6.897,7.4705,6.897a8.78917,8.78917,0,0,0,6.20074-2.54819Z"/>
            </g>
            <g id="g13617">
              <path id="path13619" class="cls-2" d="M14.50227,14.76953H6.17443V.8H2.46049V18.13389H14.50227Z"/>
            </g>
            <g id="g13621">
              <path id="path13623" class="cls-2" d="M80.3442,7.70583a3.51335,3.51335,0,0,0-3.53193,3.75656,3.63358,3.63358,0,0,0,3.581,3.75655,3.53692,3.53692,0,0,0,3.53193-3.75655,3.63313,3.63313,0,0,0-3.581-3.75656m0,10.65285a6.90158,6.90158,0,1,1,7.19531-6.89629,6.9232,6.9232,0,0,1-7.19531,6.89629"/>
            </g>
            <g id="g13625">
              <path id="path13627" class="cls-2" d="M52.13428,7.70583a3.5128,3.5128,0,0,0-3.53121,3.75656,3.63313,3.63313,0,0,0,3.581,3.75655,3.53678,3.53678,0,0,0,3.53121-3.75655,3.63313,3.63313,0,0,0-3.581-3.75656m0,10.65285a6.9016,6.9016,0,1,1,7.196-6.89629,6.92259,6.92259,0,0,1-7.196,6.89629"/>
            </g>
          </g>
        </g>
        <g>
          <path class="cls-2" d="M4.84461,27.60523a2.463,2.463,0,0,1-.98491-.16937,1.3041,1.3041,0,0,1-.60216-.50923,2.29075,2.29075,0,0,1-.29916-.85128,7.30115,7.30115,0,0,1-.08413-1.17683,7.4937,7.4937,0,0,1,.08413-1.19662,2.24733,2.24733,0,0,1,.303-.85458,1.36311,1.36311,0,0,1,.60161-.51363,2.42045,2.42045,0,0,1,.98931-.17267q.26808,0,.54442.0264c.18422.01869.35635.04179.51748.06929.16112.02859.30025.055.41794.08028l-.0308.606c-.10723-.0198-.24142-.0396-.40254-.0572s-.32446-.03409-.49053-.04949-.31841-.0231-.45644-.0231a1.599,1.599,0,0,0-.67475.12209.88274.88274,0,0,0-.40254.37614,1.76433,1.76433,0,0,0-.19137.64341,7.54542,7.54542,0,0,0-.05.94366,7.38634,7.38634,0,0,0,.05.92717,1.78183,1.78183,0,0,0,.18752.64011.84086.84086,0,0,0,.40254.36844,1.68975,1.68975,0,0,0,.6863.11879,6.77225,6.77225,0,0,0,.7017-.0385c.253-.0253.46908-.05389.64781-.08359l.0231.61261c-.12264.0264-.26727.0517-.43334.077s-.33985.0462-.52133.06159S5.01839,27.60523,4.84461,27.60523Z"/>
          <path class="cls-2" d="M8.54832,27.60523a1.718,1.718,0,0,1-.93156-.21887,1.22855,1.22855,0,0,1-.49493-.6555,3.34928,3.34928,0,0,1-.15343-1.09654,2.83539,2.83539,0,0,1,.20347-1.16584,1.36692,1.36692,0,0,1,.57137-.6511,1.76389,1.76389,0,0,1,.88152-.20677,1.565,1.565,0,0,1,1.19223.42564,1.94469,1.94469,0,0,1,.40254,1.3682l-.03849.48283h-2.484a1.47281,1.47281,0,0,0,.20677.83258.82984.82984,0,0,0,.72094.27936c.14848,0,.31071-.0044.48668-.011.17653-.0077.3514-.0176.52518-.0275s.32225-.01979.44488-.03079l.0154.53672c-.12758.0209-.281.04289-.46028.06489-.17873.0231-.36405.0418-.55542.05389Q8.79331,27.60523,8.54832,27.60523Zm-.85127-2.247H9.50629a1.48225,1.48225,0,0,0-.21062-.91177.81268.81268,0,0,0-.67091-.26066,1.02559,1.02559,0,0,0-.50592.11438.73053.73053,0,0,0-.31456.37175A1.81651,1.81651,0,0,0,7.69705,25.35826Z"/>
          <path class="cls-2" d="M11.12415,27.52824V23.6865h.71325v.49933a3.099,3.099,0,0,1,.3525-.21557,4.742,4.742,0,0,1,.47183-.21777,2.59672,2.59672,0,0,1,.50977-.14958v.7127a3.78246,3.78246,0,0,0-.50207.13088c-.17158.05609-.33.11548-.47568.17927-.14573.06489-.26452.12208-.35635.17268v2.7298Z"/>
          <path class="cls-2" d="M15.165,27.61293a1.44794,1.44794,0,0,1-.64836-.12318.70415.70415,0,0,1-.3448-.42564,2.7443,2.7443,0,0,1-.10338-.85458v-1.917H13.5471v-.606h.52133V22.56026h.705V23.6865h1.14274v.606H14.77342v1.71795a3.83115,3.83115,0,0,0,.03465.58622.45236.45236,0,0,0,.14188.29475.53962.53962,0,0,0,.33765.08469c.05059,0,.11493-.0011.19137-.0033.077-.0033.15618-.0077.23757-.0154.08193-.00769.15342-.01429.215-.01979l.03794.58291c-.07644.0154-.16443.0297-.26451.0418-.09954.0132-.198.02419-.29476.03519C15.31289,27.60743,15.231,27.61293,15.165,27.61293Z"/>
          <path class="cls-2" d="M16.65965,22.91221v-.74349h.71325v.74349Zm0,4.616V23.6865h.71325v3.84174Z"/>
          <path class="cls-2" d="M18.63826,27.52824V24.29251h-.45258v-.606h.45258v-.29916a2.93672,2.93672,0,0,1,.09954-.86227.68192.68192,0,0,1,.33765-.42894,1.41327,1.41327,0,0,1,.62856-.11878c.06654,0,.15453.0022.26451.00769.11.0044.21612.011.3184.0187a1.6006,1.6006,0,0,1,.22217.0275l-.0077.57411c-.08688-.00439-.19192-.00769-.31455-.00769h-.29861a.652.652,0,0,0-.32225.066.37544.37544,0,0,0-.165.23756,1.849,1.849,0,0,0-.04949.48613v.29916h1.058v.606h-1.058v3.23573Z"/>
          <path class="cls-2" d="M21.12225,22.91221v-.74349h.71325v.74349Zm0,4.616V23.6865h.71325v3.84174Z"/>
          <path class="cls-2" d="M24.35029,27.60523a1.718,1.718,0,0,1-.93157-.21887,1.22855,1.22855,0,0,1-.49493-.6555,3.3493,3.3493,0,0,1-.15342-1.09654,2.83539,2.83539,0,0,1,.20347-1.16584,1.3669,1.3669,0,0,1,.57136-.6511,1.76393,1.76393,0,0,1,.88153-.20677,1.565,1.565,0,0,1,1.19222.42564,1.94469,1.94469,0,0,1,.40254,1.3682l-.03849.48283H23.499a1.47281,1.47281,0,0,0,.20677.83258.82986.82986,0,0,0,.72095.27936c.14847,0,.3107-.0044.48668-.011.17652-.0077.35139-.0176.52517-.0275s.32225-.01979.44488-.03079l.0154.53672c-.12758.0209-.281.04289-.46028.06489-.17872.0231-.36405.0418-.55542.05389Q24.59528,27.60523,24.35029,27.60523Zm-.85128-2.247h1.80924a1.48225,1.48225,0,0,0-.21062-.91177.81267.81267,0,0,0-.6709-.26066,1.0256,1.0256,0,0,0-.50593.11438.73053.73053,0,0,0-.31456.37175A1.81651,1.81651,0,0,0,23.499,25.35826Z"/>
          <path class="cls-2" d="M28.16069,27.60523a1.88983,1.88983,0,0,1-.45259-.05389,1.04938,1.04938,0,0,1-.6863-.529,1.85337,1.85337,0,0,1-.19137-.56312,4.47259,4.47259,0,0,1-.06544-.82488,3.36136,3.36136,0,0,1,.16112-1.12294,1.28774,1.28774,0,0,1,.51363-.6753,1.72972,1.72972,0,0,1,.94311-.22547c.09239,0,.19412.0044.30686.0154.11218.0099.22217.02309.3294.03739.10779.0154.19192.0286.25351.0385V22.05323h.7204v5.475h-.70555l-.00715-.24526a2.23433,2.23433,0,0,1-.303.14518,2.572,2.572,0,0,1-.40254.12648A1.78593,1.78593,0,0,1,28.16069,27.60523Zm.13033-.62141a1.678,1.678,0,0,0,.36789-.04179,2.91119,2.91119,0,0,0,.3492-.10339c.10944-.04179.198-.077.26451-.10778V24.30021c-.05664-.0099-.13418-.0198-.23426-.0308-.09954-.00989-.20182-.01979-.30631-.03079-.105-.0099-.20072-.0154-.28761-.0154a.89971.89971,0,0,0-.56751.16168.876.876,0,0,0-.29531.47513,2.90861,2.90861,0,0,0-.088.77429,3.14564,3.14564,0,0,0,.061.6907,1.073,1.073,0,0,0,.17268.40584.5738.5738,0,0,0,.25681.19907A.87081.87081,0,0,0,28.291,26.98382Z"/>
          <path class="cls-2" d="M32.93729,27.52824V22.24571h.7358v4.638h2.24642v.6445Z"/>
          <path class="cls-2" d="M37.98281,27.60523a1.718,1.718,0,0,1-.93156-.21887,1.2285,1.2285,0,0,1-.49493-.6555,3.349,3.349,0,0,1-.15343-1.09654,2.83539,2.83539,0,0,1,.20347-1.16584,1.36692,1.36692,0,0,1,.57137-.6511,1.76386,1.76386,0,0,1,.88152-.20677,1.565,1.565,0,0,1,1.19223.42564,1.94469,1.94469,0,0,1,.40254,1.3682l-.03849.48283h-2.484a1.47281,1.47281,0,0,0,.20677.83258.82984.82984,0,0,0,.72094.27936c.14848,0,.31071-.0044.48668-.011.17653-.0077.3514-.0176.52518-.0275s.32225-.01979.44488-.03079l.0154.53672c-.12758.0209-.281.04289-.46028.06489-.17873.0231-.364.0418-.55542.05389Q38.2278,27.60523,37.98281,27.60523Zm-.85127-2.247h1.80923a1.48233,1.48233,0,0,0-.21061-.91177.81268.81268,0,0,0-.67091-.26066,1.02559,1.02559,0,0,0-.50592.11438.73053.73053,0,0,0-.31456.37175A1.81651,1.81651,0,0,0,37.13154,25.35826Z"/>
          <path class="cls-2" d="M40.55864,27.52824V23.6865h.71325v.26836a1.99857,1.99857,0,0,1,.314-.15288,3.78533,3.78533,0,0,1,.40639-.13418,1.596,1.596,0,0,1,.41409-.05719,1.7633,1.7633,0,0,1,.65551.10338.839.839,0,0,1,.40254.33,1.55924,1.55924,0,0,1,.20732.58621,5.32806,5.32806,0,0,1,.061.87437v2.02371h-.72039V25.54193a4.25983,4.25983,0,0,0-.0539-.75889.6545.6545,0,0,0-.21447-.41024.77837.77837,0,0,0-.48338-.12648,1.83894,1.83894,0,0,0-.364.03849,2.35523,2.35523,0,0,0-.3525.10009,2.92711,2.92711,0,0,0-.27221.11438v3.029Z"/>
          <path class="cls-2" d="M46.31686,27.60523a1.98926,1.98926,0,0,1-1.01241-.21887,1.19089,1.19089,0,0,1-.52132-.6709A3.63856,3.63856,0,0,1,44.6297,25.565a3.099,3.099,0,0,1,.165-1.09655,1.221,1.221,0,0,1,.53672-.6434,2.37882,2.37882,0,0,1,1.97421,0,1.22683,1.22683,0,0,1,.53288.6434,3.09925,3.09925,0,0,1,.165,1.09655,3.73141,3.73141,0,0,1-.14958,1.15043,1.17381,1.17381,0,0,1-.51747.6709A2.00566,2.00566,0,0,1,46.31686,27.60523Zm0-.606A1.06818,1.06818,0,0,0,46.93,26.854a.72993.72993,0,0,0,.27606-.46413,4.00324,4.00324,0,0,0,.06929-.82488,2.99191,2.99191,0,0,0-.08469-.793.70536.70536,0,0,0-.29146-.42564,1.35375,1.35375,0,0,0-1.16143,0,.69882.69882,0,0,0-.29531.42564,2.99523,2.99523,0,0,0-.08413.793,4.04676,4.04676,0,0,0,.06874.82488.73791.73791,0,0,0,.27221.46413A1.0672,1.0672,0,0,0,46.31686,26.99922Z"/>
          <path class="cls-2" d="M49.57514,27.52824,48.54788,23.6865h.76659l.81279,3.228h.26836l.83588-3.228h.72809l-1.02725,3.84174Z"/>
          <path class="cls-2" d="M54.18347,27.60523a1.98926,1.98926,0,0,1-1.01241-.21887,1.19093,1.19093,0,0,1-.52132-.6709,3.63856,3.63856,0,0,1-.15343-1.15043,3.099,3.099,0,0,1,.165-1.09655,1.221,1.221,0,0,1,.53672-.6434,2.37882,2.37882,0,0,1,1.97421,0,1.22683,1.22683,0,0,1,.53288.6434,3.09925,3.09925,0,0,1,.165,1.09655,3.73175,3.73175,0,0,1-.14957,1.15043,1.17382,1.17382,0,0,1-.51748.6709A2.00561,2.00561,0,0,1,54.18347,27.60523Zm0-.606a1.06818,1.06818,0,0,0,.61316-.14518.72988.72988,0,0,0,.27606-.46413A4.00324,4.00324,0,0,0,55.142,25.565a2.99191,2.99191,0,0,0-.08469-.793.70536.70536,0,0,0-.29146-.42564,1.35375,1.35375,0,0,0-1.16143,0,.69882.69882,0,0,0-.29531.42564,2.99523,2.99523,0,0,0-.08413.793,4.04676,4.04676,0,0,0,.06874.82488.73791.73791,0,0,0,.27221.46413A1.0672,1.0672,0,0,0,54.18347,26.99922Z"/>
          <path class="cls-2" d="M58.7764,26.30192a1.96211,1.96211,0,0,1-1.76359-1.03935,2.318,2.318,0,0,1,0-2.13589,2.0092,2.0092,0,0,1,3.54589.0154,2.317,2.317,0,0,1,0,2.12049,1.94955,1.94955,0,0,1-.71655.75889A2.00716,2.00716,0,0,1,58.7764,26.30192Zm0-.353a1.60275,1.60275,0,0,0,.86613-.23427,1.67812,1.67812,0,0,0,.59446-.6324,1.80807,1.80807,0,0,0,.21832-.88208,1.85184,1.85184,0,0,0-.12648-.6819,1.70837,1.70837,0,0,0-.3525-.55982,1.67623,1.67623,0,0,0-.53287-.375,1.681,1.681,0,0,0-1.52988.099,1.6763,1.6763,0,0,0-.59447.63681,1.919,1.919,0,0,0,0,1.763,1.64062,1.64062,0,0,0,.59447.6324A1.60868,1.60868,0,0,0,58.7764,25.94887Zm.03025-.529a.95007.95007,0,0,1-.53287-.13088.73506.73506,0,0,1-.28376-.40255,2.31685,2.31685,0,0,1-.088-.70059,2.14957,2.14957,0,0,1,.088-.67091.73711.73711,0,0,1,.29145-.39924.98639.98639,0,0,1,.54828-.13418,1.826,1.826,0,0,1,.3415.0308,1.39631,1.39631,0,0,1,.24141.06159l-.0231.44433c-.06654-.0099-.15232-.022-.25681-.03409a2.32014,2.32014,0,0,0-.28761-.0198.44324.44324,0,0,0-.27991.077.36446.36446,0,0,0-.12263.23756,2.51993,2.51993,0,0,0-.02694.40695,1.3806,1.3806,0,0,0,.08853.55871.33728.33728,0,0,0,.34095.19248,2.32014,2.32014,0,0,0,.28761-.0198c.10449-.0121.19027-.0242.25681-.0341l.0231.43664a1.8702,1.8702,0,0,1-.253.066A1.83914,1.83914,0,0,1,58.80665,25.41985Z"/>
          <path class="cls-2" d="M63.59866,29.2V23.6865h.71324v.26836a2.83388,2.83388,0,0,1,.29916-.14958,3.08268,3.08268,0,0,1,.391-.13748,1.47936,1.47936,0,0,1,.39869-.05719,1.42965,1.42965,0,0,1,.80894.20677,1.20791,1.20791,0,0,1,.45973.64011,3.4878,3.4878,0,0,1,.14958,1.11524,3.3925,3.3925,0,0,1-.17268,1.19222,1.16632,1.16632,0,0,1-.54442.64451,2.0703,2.0703,0,0,1-.96181.19577,3.68985,3.68985,0,0,1-.46413-.03079c-.15618-.0209-.27716-.0385-.36405-.0539V29.2Zm1.47213-2.20848a1.11946,1.11946,0,0,0,.60986-.14518.78343.78343,0,0,0,.31786-.46083,2.98667,2.98667,0,0,0,.09183-.82048,1.82594,1.82594,0,0,0-.21446-1.03055.70489.70489,0,0,0-.60547-.29586,1.50812,1.50812,0,0,0-.3492.04289,2.98388,2.98388,0,0,0-.341.099,1.31849,1.31849,0,0,0-.26836.12648v2.41525c.07644.011.18752.0242.33325.04289A3.54968,3.54968,0,0,0,65.07079,26.99152Z"/>
          <path class="cls-2" d="M68.63593,27.60523a1.08842,1.08842,0,0,1-.82818-.29916A1.23607,1.23607,0,0,1,67.524,26.424a1.26831,1.26831,0,0,1,.138-.63241.86646.86646,0,0,1,.41024-.364,1.92972,1.92972,0,0,1,.6786-.14628l1.11139-.10669v-.29915a.67637.67637,0,0,0-.16058-.51033.69216.69216,0,0,0-.48338-.14958c-.13308,0-.28871.0055-.46743.0154-.17927.011-.35525.0231-.529.03849s-.33.0308-.468.0462l-.03079-.52133c.12813-.03079.27991-.05829.45643-.08469.17653-.02529.3613-.04839.556-.06819a5.03173,5.03173,0,0,1,.53672-.03079,1.83015,1.83015,0,0,1,.7435.12978.85163.85163,0,0,1,.42948.40694,1.59529,1.59529,0,0,1,.138.7127v1.88623a.28891.28891,0,0,0,.12649.22656.6732.6732,0,0,0,.27991.09569l-.0231.529c-.07149,0-.143-.0011-.21447-.0044a1.55209,1.55209,0,0,1-.19962-.01869c-.061-.011-.11988-.0231-.176-.0385a.80653.80653,0,0,1-.21886-.088,1.1748,1.1748,0,0,1-.17983-.13418,3.50615,3.50615,0,0,1-.36075.12978,4.0053,4.0053,0,0,1-.47513.11549A2.816,2.816,0,0,1,68.63593,27.60523Zm.14517-.56752a2.15755,2.15755,0,0,0,.3954-.03849c.13528-.0253.26451-.055.38714-.088s.22217-.06269.29861-.088V25.67281l-1.01955.10009a.65364.65364,0,0,0-.46029.17927.6628.6628,0,0,0-.138.44874.73425.73425,0,0,0,.13418.46743A.4818.4818,0,0,0,68.7811,27.03771Z"/>
          <path class="cls-2" d="M71.72593,27.52824V23.6865h.71325v.49933a3.09963,3.09963,0,0,1,.35249-.21557,4.74222,4.74222,0,0,1,.47184-.21777,2.59672,2.59672,0,0,1,.50977-.14958v.7127a3.783,3.783,0,0,0-.50208.13088c-.17157.05609-.32995.11548-.47568.17927-.14573.06489-.26451.12208-.35634.17268v2.7298Z"/>
          <path class="cls-2" d="M75.76674,27.61293a1.44787,1.44787,0,0,1-.64835-.12318.70415.70415,0,0,1-.3448-.42564,2.74425,2.74425,0,0,1-.10339-.85458v-1.917h-.52132v-.606h.52132V22.56026h.705V23.6865h1.14273v.606H75.3752v1.71795a3.83115,3.83115,0,0,0,.03465.58622.4524.4524,0,0,0,.14187.29475.53965.53965,0,0,0,.33766.08469c.05059,0,.11493-.0011.19137-.0033.077-.0033.15618-.0077.23756-.0154.08194-.00769.15343-.01429.215-.01979l.03795.58291c-.07644.0154-.16443.0297-.26451.0418-.09954.0132-.198.02419-.29476.03519C75.91467,27.60743,75.83273,27.61293,75.76674,27.61293Z"/>
          <path class="cls-2" d="M77.26143,27.52824V23.6865h.71324v.26836a1.99873,1.99873,0,0,1,.314-.15288,3.78533,3.78533,0,0,1,.40639-.13418,1.596,1.596,0,0,1,.41409-.05719,1.76321,1.76321,0,0,1,.6555.10338.83894.83894,0,0,1,.40255.33,1.55959,1.55959,0,0,1,.20732.58621,5.32806,5.32806,0,0,1,.061.87437v2.02371h-.7204V25.54193a4.26092,4.26092,0,0,0-.05389-.75889.6545.6545,0,0,0-.21447-.41024.77837.77837,0,0,0-.48338-.12648,1.83911,1.83911,0,0,0-.36405.03849,2.35591,2.35591,0,0,0-.3525.10009,2.92828,2.92828,0,0,0-.27221.11438v3.029Z"/>
          <path class="cls-2" d="M82.90471,27.60523a1.718,1.718,0,0,1-.93156-.21887,1.2285,1.2285,0,0,1-.49493-.6555,3.349,3.349,0,0,1-.15343-1.09654,2.83539,2.83539,0,0,1,.20347-1.16584,1.36687,1.36687,0,0,1,.57137-.6511,1.76386,1.76386,0,0,1,.88152-.20677,1.565,1.565,0,0,1,1.19223.42564,1.94469,1.94469,0,0,1,.40254,1.3682l-.0385.48283h-2.484a1.47281,1.47281,0,0,0,.20677.83258.82986.82986,0,0,0,.721.27936c.14848,0,.3107-.0044.48668-.011.17652-.0077.3514-.0176.52517-.0275s.32226-.01979.44489-.03079l.0154.53672c-.12759.0209-.281.04289-.46029.06489-.17872.0231-.364.0418-.55542.05389Q83.1497,27.60523,82.90471,27.60523Zm-.85128-2.247h1.80924a1.48225,1.48225,0,0,0-.21062-.91177.81267.81267,0,0,0-.6709-.26066,1.02563,1.02563,0,0,0-.50593.11438.73052.73052,0,0,0-.31455.37175A1.81649,1.81649,0,0,0,82.05343,25.35826Z"/>
          <path class="cls-2" d="M85.48054,27.52824V23.6865h.71324v.49933a3.09987,3.09987,0,0,1,.3525-.21557,4.74306,4.74306,0,0,1,.47183-.21777,2.597,2.597,0,0,1,.50978-.14958v.7127a3.78259,3.78259,0,0,0-.50208.13088c-.17157.05609-.33.11548-.47568.17927-.14573.06489-.26451.12208-.35635.17268v2.7298Z"/>
        </g>
      </g>
    </g>
  </g>
</svg>
