<svg xmlns="http://www.w3.org/2000/svg" width="174" height="74" viewBox="0 0 174 74">
  <defs>
    <style>
      .cls-1, .cls-2 {
        fill: #fff;
      }

      .cls-1 {
        opacity: 0;
      }
    </style>
  </defs>
  <title>eurobike</title>
  <g id="Layer_2" data-name="Layer 2">
    <g id="Layer_2-2" data-name="Layer 2">
      <rect class="cls-1" width="174" height="74"/>
    </g>
    <g id="Layer_1-2" data-name="Layer 1">
      <g>
        <g>
          <path class="cls-2" d="M53.9192,30.2655H43.19867v4.30181h9.84065v3.51844H43.19867v5.20917H54.41373V46.937H39.0617V26.67838H53.9192Z"/>
          <path class="cls-2" d="M61.29951,31.95586v9.02982a4.74542,4.74542,0,0,0,.30113,1.92424,2.07973,2.07973,0,0,0,2.092,1.14088,2.73371,2.73371,0,0,0,2.73544-1.622,5.89544,5.89544,0,0,0,.38282-2.32261v-8.1503H70.783V46.937H66.97573V44.82043q-.05476.06887-.274.41247a2.75158,2.75158,0,0,1-.52055.60442,5.4338,5.4338,0,0,1-1.775,1.12714,6.03976,6.03976,0,0,1-2.00811.30222q-3.31636,0-4.46773-2.3913a9.17332,9.17332,0,0,1-.64419-3.8897V31.95586Z"/>
          <path class="cls-2" d="M82.91229,31.60557q.07538.007.33655.02061v4.013q-.37089-.04122-.65973-.05495-.28847-.01356-.46705-.01374a3.24872,3.24872,0,0,0-3.175,1.53962,5.98493,5.98493,0,0,0-.45368,2.66639V46.937H74.54907V31.95586h3.73824v2.61145a8.2894,8.2894,0,0,1,1.58046-2.04788,4.30343,4.30343,0,0,1,2.85871-.92073C82.79987,31.5987,82.86168,31.60087,82.91229,31.60557Z"/>
          <path class="cls-2" d="M98.03766,45.1042q-1.89678,2.34142-5.759,2.34142A6.9716,6.9716,0,0,1,86.52,45.1042,8.67074,8.67074,0,0,1,84.62325,39.467,8.729,8.729,0,0,1,86.52,33.85082a6.92336,6.92336,0,0,1,5.75864-2.37611,6.92363,6.92363,0,0,1,5.759,2.37611A8.73074,8.73074,0,0,1,99.93407,39.467,8.67246,8.67246,0,0,1,98.03766,45.1042Zm-3.13381-2.16464a5.67745,5.67745,0,0,0,.92073-3.47253,5.646,5.646,0,0,0-.92073-3.4653,3.48107,3.48107,0,0,0-5.28436,0,5.61423,5.61423,0,0,0-.928,3.4653,5.64546,5.64546,0,0,0,.928,3.47253,3.469,3.469,0,0,0,5.28436,0Z"/>
          <path class="cls-2" d="M115.52974,33.75647a8.6094,8.6094,0,0,1,1.681,5.49764,9.63031,9.63031,0,0,1-1.65819,5.78611,6.01733,6.01733,0,0,1-7.6254,1.55335,5.96528,5.96528,0,0,1-1.46442-1.53961v1.883h-3.86223V26.70585h3.91718v7.20173a5.73136,5.73136,0,0,1,1.64625-1.5942,4.91432,4.91432,0,0,1,2.71122-.6872A5.59893,5.59893,0,0,1,115.52974,33.75647Zm-3.27407,9.126a5.54912,5.54912,0,0,0,.84554-3.21587,7.197,7.197,0,0,0-.41608-2.63929,2.89491,2.89491,0,0,0-2.91-1.97883,2.93871,2.93871,0,0,0-2.95162,1.93762,7.21884,7.21884,0,0,0-.41572,2.6664,5.54962,5.54962,0,0,0,.85928,3.18876,2.94958,2.94958,0,0,0,2.619,1.26451A2.71736,2.71736,0,0,0,112.25567,42.88245Z"/>
          <path class="cls-2" d="M123.95839,30.16935h-3.97176v-3.615h3.97176Zm-3.97176,1.78651h3.97176V46.937h-3.97176Z"/>
          <path class="cls-2" d="M127.71108,26.74706h3.84813V37.67582l4.94057-5.65127h4.87116l-5.36966,5.58114,5.57752,9.3313h-4.76741l-3.62979-6.40065-1.62239,1.68638V46.937h-3.84813Z"/>
          <path class="cls-2" d="M153.16837,32.25952a6.09336,6.09336,0,0,1,2.589,2.216,7.36687,7.36687,0,0,1,1.19366,3.0973,19.19915,19.19915,0,0,1,.12905,2.97331h-10.911a3.59359,3.59359,0,0,0,1.56637,3.16092,3.97767,3.97767,0,0,0,2.15994.56357,3.0423,3.0423,0,0,0,2.98089-1.71783h3.99924a4.89463,4.89463,0,0,1-1.45213,2.70761,7.27985,7.27985,0,0,1-5.63609,2.18525,8.16665,8.16665,0,0,1-5.27676-1.84327q-2.2861-1.84309-2.28611-5.998a8.11122,8.11122,0,0,1,2.06379-5.96975,7.22128,7.22128,0,0,1,5.357-2.07716A8.52479,8.52479,0,0,1,153.16837,32.25952Zm-5.85985,3.3836a4.0715,4.0715,0,0,0-1.04328,2.319h6.74805A3.26908,3.26908,0,0,0,151.97,35.59468a3.43391,3.43391,0,0,0-2.32333-.80758A3.10725,3.10725,0,0,0,147.30852,35.64312Z"/>
        </g>
        <g>
          <rect class="cls-2" x="16.91545" y="26.58472" width="17.18834" height="4.5089"/>
          <rect class="cls-2" x="16.91545" y="34.5064" width="17.18834" height="4.5089"/>
          <rect class="cls-2" x="16.91545" y="42.42809" width="17.18834" height="4.5089"/>
        </g>
      </g>
    </g>
  </g>
</svg>
