<svg xmlns="http://www.w3.org/2000/svg" width="40" height="12" viewBox="0 0 40 12">
  <defs>
    <style>
      .cls-1 {
        fill: #fff;
        opacity: 0;
      }

      .cls-2 {
        fill: #fbfbff;
      }
    </style>
  </defs>
  <title>hokup-com-br</title>
  <g id="Layer_2" data-name="Layer 2">
    <g id="Layer_2-2" data-name="Layer 2">
      <rect class="cls-1" width="40" height="12"/>
    </g>
    <g id="Layer_1-2" data-name="Layer 1">
      <g>
        <g>
          <path class="cls-2" d="M17.776,6.49257V9.25412H16.21472V6.76335c0-.4874-.23464-.91152-.76706-.91152-.52342,0-.74905.42412-.74905.91152V9.25412H13.13736V2.84664h1.04177a.51948.51948,0,0,1,.51948.51949V5.11179a1.56574,1.56574,0,0,1,1.33563-.64073C16.98177,4.47106,17.776,5.05764,17.776,6.49257Z"/>
          <path class="cls-2" d="M18.34467,6.90768a2.50529,2.50529,0,0,1,5.00869,0,2.50528,2.50528,0,0,1-5.00869,0Zm3.47445,0a.97232.97232,0,1,0-1.94021,0,.97232.97232,0,1,0,1.94021,0Z"/>
          <path class="cls-2" d="M25.94344,7.63871l-.46025.51442v1.101H23.92193V2.84664H24.9637a.51949.51949,0,0,1,.51949.51949v2.7925L26.855,4.56136h1.85L26.9,6.56473l1.9945,2.68939H27.18877Z"/>
          <path class="cls-2" d="M33.83114,5.08085V9.25412H32.26988V8.70356a1.57106,1.57106,0,0,1-1.34463.64086c-.93853,0-1.73272-.5867-1.73272-2.02151V4.56136h1.56125V7.05213c0,.48728.23463.91152.76706.91152.51441,0,.749-.42424.749-.91152V4.56136h1.04177A.51949.51949,0,0,1,33.83114,5.08085Z"/>
          <path class="cls-2" d="M39.73333,6.90768a2.26276,2.26276,0,0,1-2.229,2.43674,1.60293,1.60293,0,0,1-1.2906-.53255h-.027v2.157H34.62546V4.56136h1.56125v.44212h.027a1.60344,1.60344,0,0,1,1.2906-.53242A2.26272,2.26272,0,0,1,39.73333,6.90768Zm-1.53411,0a1.0248,1.0248,0,1,0-2.04865,0,1.0248,1.0248,0,1,0,2.04865,0Z"/>
        </g>
        <g>
          <path class="cls-2" d="M9.88441.79619h-2.314a.80282.80282,0,0,0-.80281.80281v.68555A1.13286,1.13286,0,0,0,7.90041,3.4174h2.78681V1.599A.8028.8028,0,0,0,9.88441.79619Z"/>
          <path class="cls-2" d="M3.05349,8.67036H.26667v1.967a.56644.56644,0,0,0,.56642.56643H3.61991a.56644.56644,0,0,0,.56643-.56643V9.80321A1.13286,1.13286,0,0,0,3.05349,8.67036Z"/>
          <path class="cls-2" d="M9.55437,5.99054H8.05817l-3.05132.007a.82049.82049,0,0,1-.82051-.82035V1.929A1.13286,1.13286,0,0,0,3.05349.79619h-1.984A.80282.80282,0,0,0,.26667,1.599V4.87661A1.13285,1.13285,0,0,0,1.39952,6.00946H3.36581A.8205.8205,0,0,1,4.18632,6.83l.00165.61782a.88275.88275,0,0,0,.049.29134,1.3173,1.3173,0,0,0,1.25191.85654h.51949a.81612.81612,0,0,1,.75917.69683V10.071a1.13285,1.13285,0,0,0,1.13285,1.13285h2.78681V7.12339A1.13285,1.13285,0,0,0,9.55437,5.99054Z"/>
        </g>
      </g>
    </g>
  </g>
</svg>
