<svg xmlns="http://www.w3.org/2000/svg" width="40" height="40" viewBox="0 0 40 40">
  <defs>
    <style>
      .cls-1 {
        fill: #fff;
        opacity: 0;
      }

      .cls-2 {
        fill: #9a9aa0;
      }
    </style>
  </defs>
  <title>instagram</title>
  <g id="Layer_2" data-name="Layer 2">
    <g id="Layer_2-2" data-name="Layer 2">
      <rect class="cls-1" width="40" height="40"/>
    </g>
    <g id="Layer_1-2" data-name="Layer 1">
      <path class="cls-2" d="M32.17126,25.03a7.29986,7.29986,0,0,1-1.98046,5.13476A7.24968,7.24968,0,0,1,25.056,32.14323c-2.02344.11523-8.08789.11523-10.11133,0A7.31135,7.31135,0,0,1,9.809,30.16471,7.25211,7.25211,0,0,1,7.82947,25.03c-.11524-2.02344-.11524-8.08984,0-10.11328A7.27762,7.27762,0,0,1,9.809,9.7819,7.29535,7.29535,0,0,1,14.9447,7.80827c2.02344-.11426,8.08789-.11426,10.11133,0A7.29736,7.29736,0,0,1,30.1908,9.78776a7.25732,7.25732,0,0,1,1.98046,5.13477C32.28552,16.946,32.28552,23.00651,32.17126,25.03Zm-2.12207-5.05469c0-1.78125.14747-5.60937-.49218-7.22265a4.13321,4.13321,0,0,0-2.33008-2.33008c-1.60742-.63477-5.44141-.49219-7.22363-.49219-1.78321,0-5.61133-.14844-7.22461.49219a4.13606,4.13606,0,0,0-2.33008,2.33008c-.63379,1.60742-.49219,5.4414-.49219,7.22265,0,1.7832-.14746,5.61133.49219,7.22461A4.13318,4.13318,0,0,0,12.77869,29.53c1.60742.63476,5.4414.49219,7.22461.49219,1.78222,0,5.61035.14843,7.22363-.49219A4.13606,4.13606,0,0,0,29.557,27.19987C30.19666,25.59245,30.04919,21.75846,30.04919,19.97526Zm-3.76269,0a6.28369,6.28369,0,1,1-6.2832-6.2832A6.27477,6.27477,0,0,1,26.2865,19.97526Zm-2.19824,0a4.08545,4.08545,0,1,0-4.085,4.08594A4.08877,4.08877,0,0,0,24.08826,19.97526ZM26.54333,14.901a1.46582,1.46582,0,1,1,1.46583-1.46484A1.46247,1.46247,0,0,1,26.54333,14.901Z"/>
    </g>
  </g>
</svg>
