<svg xmlns="http://www.w3.org/2000/svg" width="62" height="12" viewBox="0 0 62 12">
  <defs>
    <style>
      .cls-1 {
        fill: #fff;
        opacity: 0;
      }

      .cls-2 {
        fill: #56586f;
      }
    </style>
  </defs>
  <title>itautec</title>
  <g id="Layer_2" data-name="Layer 2">
    <g id="Layer_2-2" data-name="Layer 2">
      <rect class="cls-1" width="62" height="12"/>
    </g>
    <g id="Layer_1-2" data-name="Layer 1">
      <g>
        <path class="cls-2" d="M40.904,5.37731H38.97683V9.00438a.95117.95117,0,0,1-.07273.4,1.2654,1.2654,0,0,1-1.17266.809c-.79086,0-1.14539-.58178-1.14539-1.56355V5.3864H34.65888V8.99529c0,2.03625,1.109,2.76348,2.36351,2.76348a2.4073,2.4073,0,0,0,2.13624-1.12721H39.195v.97267h1.709V5.37731ZM30.61366,5.23186v1.309a1.75169,1.75169,0,0,0-.21817-.00909,3.90515,3.90515,0,0,0-1.85444.5l-.36362-1.209a4.876,4.876,0,0,1,2.43623-.59088m0,5.26335a1.35641,1.35641,0,0,1-.1909.01818c-.53633,0-.909-.2818-.909-.8,0-.55451.43634-.8454,1.09994-.97267V7.50446c-1.84535.2-2.89075.99086-2.89075,2.35442a1.95581,1.95581,0,0,0,2.11806,1.8908,3.16045,3.16045,0,0,0,.77269-.1V10.49521Zm1.09085-1.18176a1.48789,1.48789,0,0,1-.03636.34544,1.30421,1.30421,0,0,1-1.05449.83632v1.15448a2.26046,2.26046,0,0,0,1.15448-.7h.04545v.64542H33.568V7.93171c0-1.48173-.73632-2.70893-2.85439-2.70893a.37287.37287,0,0,0-.1.00909v1.309c.91813.06364,1.0363.5727,1.0363.84541V7.459a7.90742,7.90742,0,0,0-1.0363.04545v1.2363A5.12064,5.12064,0,0,1,31.70451,8.659v.6545Zm16.69907-.2a1.30186,1.30186,0,0,0,1.1363,1.12721v1.49992A2.95393,2.95393,0,0,1,46.54914,8.568a3.14662,3.14662,0,0,1,2.99074-3.33618V6.5227A1.32139,1.32139,0,0,0,48.3854,7.78627h1.15448V9.11346Zm1.1363-3.8816a.98809.98809,0,0,1,.16363-.00909c2.02715,0,2.79075,1.57264,2.79075,3.118a3.43678,3.43678,0,0,1-.07272.76359H49.53988V7.77717h1.15448a1.12823,1.12823,0,0,0-1.09085-1.26356H49.549V5.23186Zm0,4.99972a2.82334,2.82334,0,0,0,.62724.06364,5.28654,5.28654,0,0,0,1.71809-.26362l.26362,1.3181a6.07165,6.07165,0,0,1-2.2726.4c-.11817,0-.23635-.00909-.34543-.00909C49.53988,11.74059,49.53988,10.23158,49.53988,10.23158Zm8.72679,1.22721a4.52764,4.52764,0,0,1-1.74536.29089A3.03684,3.03684,0,0,1,53.2124,8.54986a3.255,3.255,0,0,1,3.57253-3.318,4.63948,4.63948,0,0,1,1.48173.24544l-.3,1.44538a2.577,2.577,0,0,0-1.09085-.2,1.6109,1.6109,0,0,0-1.68172,1.74536,1.63358,1.63358,0,0,0,1.709,1.75444,3.052,3.052,0,0,0,1.12721-.2l.23636,1.43629M20.1506,3.29561h1.92717v8.29953H20.1506Zm3.73616,0v2.0817H23.005V6.82268h.88177v2.509A2.63464,2.63464,0,0,0,24.414,11.177a2.06337,2.06337,0,0,0,1.5181.58179,2.2516,2.2516,0,0,0,1.0454-.1909l-.02727-1.45446c-.05455.02727-.05455.07272-.37271.07272-.6636,0-.81814-.41816-.81814-1.17266V6.83177h1.19085V5.3864H25.75938V3.30469H23.88676Zm18.82622,0v2.0817h-.88177V6.82268H42.713v2.509a2.68,2.68,0,0,0,.52725,1.84535,2.06335,2.06335,0,0,0,1.51809.58179,2.2516,2.2516,0,0,0,1.0454-.1909l-.01818-1.45446c-.05454.02727-.06364.07272-.37271.07272-.67269,0-.81814-.41816-.81814-1.17266V6.83177h1.19994V5.3864H44.59469V3.30469H42.713ZM6.57863,5.92273a2.84531,2.84531,0,1,1,2.8453,2.83621,2.84373,2.84373,0,0,1-2.8453-2.83621"/>
        <path class="cls-2" d="M5.16053.24123h8.5177a1.42189,1.42189,0,0,1,1.4272,1.4181v4.2634a6.32346,6.32346,0,0,0-5.74514-3.618,6.695,6.695,0,0,0-5.61787,3.618V1.65933A1.40838,1.40838,0,0,1,5.16053.24123"/>
        <path class="cls-2" d="M3.73333,10.18613V5.92273A6.706,6.706,0,0,0,9.3512,9.53162a6.34734,6.34734,0,0,0,5.74514-3.60889v4.2634a1.42188,1.42188,0,0,1-1.4272,1.4181H5.16053a1.42188,1.42188,0,0,1-1.4272-1.4181"/>
      </g>
    </g>
  </g>
</svg>
