<svg xmlns="http://www.w3.org/2000/svg" width="62" height="12" viewBox="0 0 62 12">
  <defs>
    <style>
      .cls-1 {
        fill: #fff;
        opacity: 0;
      }

      .cls-2 {
        fill: #56586f;
      }
    </style>
  </defs>
  <title>lenovo</title>
  <g id="Layer_2" data-name="Layer 2">
    <g id="Layer_2-2" data-name="Layer 2">
      <rect class="cls-1" width="62" height="12"/>
    </g>
    <g id="Layer_1-2" data-name="Layer 1">
      <g id="layer1">
        <g id="g23944">
          <g id="g13605">
            <path id="path13607" class="cls-2" d="M26.43914,2.67667a3.67508,3.67508,0,0,0-2.884,1.41713l.00048-.00192-.00048.00048.00048-1.26728H21.12682v8.84461h2.42827V6.637a1.89527,1.89527,0,0,1,2.00266-1.8686A1.94818,1.94818,0,0,1,27.60253,6.637v5.03272h2.42875V6.18694a3.40431,3.40431,0,0,0-3.59214-3.51027"/>
          </g>
          <g id="g13609">
            <path id="path13611" class="cls-2" d="M47.29287,2.82546,45.09728,8.85017l-2.1956-6.02471H40.12727l3.639,8.84174h2.66143l3.639-8.84174Z"/>
          </g>
          <g id="g13613">
            <path id="path13615" class="cls-2" d="M13.8762,5.48991a2.25957,2.25957,0,0,1,1.86812-.8814,2.03194,2.03194,0,0,1,1.88248,1.2376l-4.24325,1.7604a2.8445,2.8445,0,0,1,.49265-2.1166m4.666,3.46047a3.69325,3.69325,0,0,1-2.53838.93694,2.69112,2.69112,0,0,1-1.95861-.71718l6.209-2.57573A4.79261,4.79261,0,0,0,19.19378,4.125a4.437,4.437,0,0,0-3.49351-1.44872,4.53021,4.53021,0,0,0-4.68419,4.57215c0,2.66957,2.01846,4.57168,4.95182,4.57168A5.82589,5.82589,0,0,0,20.07805,10.131Z"/>
          </g>
          <g id="g13617">
            <path id="path13619" class="cls-2" d="M10.7846,9.43962H5.2645V.17993H2.80272V11.66969H10.7846Z"/>
          </g>
          <g id="g13621">
            <path id="path13623" class="cls-2" d="M54.42787,4.75745a2.32882,2.32882,0,0,0-2.34113,2.49,2.40851,2.40851,0,0,0,2.37369,2.49,2.34444,2.34444,0,0,0,2.34114-2.49,2.40822,2.40822,0,0,0-2.3737-2.49m0,7.06123a4.57471,4.57471,0,1,1,4.76941-4.5712,4.589,4.589,0,0,1-4.76941,4.5712"/>
          </g>
          <g id="g13625">
            <path id="path13627" class="cls-2" d="M35.729,4.75745a2.32845,2.32845,0,0,0-2.34066,2.49,2.40821,2.40821,0,0,0,2.37369,2.49,2.34435,2.34435,0,0,0,2.34066-2.49,2.40822,2.40822,0,0,0-2.37369-2.49m0,7.06123a4.57472,4.57472,0,1,1,4.76988-4.5712,4.58863,4.58863,0,0,1-4.76988,4.5712"/>
          </g>
        </g>
      </g>
    </g>
  </g>
</svg>
