<svg xmlns="http://www.w3.org/2000/svg" width="40" height="40" viewBox="0 0 40 40">
  <defs>
    <style>
      .cls-1 {
        fill: #fff;
        opacity: 0;
      }

      .cls-2 {
        fill: #9a9aa0;
      }
    </style>
  </defs>
  <title>linkedin</title>
  <g id="Layer_2" data-name="Layer 2">
    <g id="Layer_2-2" data-name="Layer 2">
      <rect class="cls-1" width="40" height="40"/>
    </g>
    <g id="Layer_1-2" data-name="Layer 1">
      <path class="cls-2" d="M32.25,9.49272V30.45951a1.762,1.762,0,0,1-1.75,1.76661H9.49414A1.75765,1.75765,0,0,1,7.75,30.45951V9.49272a1.75764,1.75764,0,0,1,1.74414-1.7666H30.5A1.762,1.762,0,0,1,32.25,9.49272ZM15.44434,13.33158a2.10547,2.10547,0,1,0-2.10547,2.10547A2.11014,2.11014,0,0,0,15.44434,13.33158Zm-.28418,15.39454V17.03373H11.52344V28.72612h3.63672ZM28.7666,22.31694c0-3.15039-.68359-5.57325-4.3584-5.57325a3.82776,3.82776,0,0,0-3.44043,1.88672H20.919V17.03373h-3.4834V28.72612h3.63086V22.94c0-1.52539.29-3.00195,2.18164-3.00195,1.85937,0,1.88672,1.74414,1.88672,3.10059v5.6875H28.7666Z"/>
    </g>
  </g>
</svg>
