<svg xmlns="http://www.w3.org/2000/svg" width="120" height="30" viewBox="0 0 120 30">
  <defs>
    <style>
      .cls-1 {
        fill: #fff;
        opacity: 0;
      }

      .cls-2 {
        fill: #432af4;
      }

      .cls-3 {
        fill: #1c212d;
      }
    </style>
  </defs>
  <title>logo-brite</title>
  <g id="Layer_2" data-name="Layer 2">
    <g id="Layer_1-2" data-name="Layer 1">
      <g>
        <rect class="cls-1" width="120" height="30"/>
        <g>
          <g>
            <path class="cls-2" d="M115.51728,26.4619a1.92561,1.92561,0,0,1,1.99873-.82816,1.52077,1.52077,0,0,1,.64994.27017,1.92578,1.92578,0,0,1,.82626,1.99716,1.521,1.521,0,0,1-.26969.64941,1.92547,1.92547,0,0,1-1.997.82723,1.52021,1.52021,0,0,1-.64837-.26866,1.92538,1.92538,0,0,1-.82894-1.99845A1.52034,1.52034,0,0,1,115.51728,26.4619Zm2.60051.04622a1.41207,1.41207,0,0,0-1.31672-.38573,1.07248,1.07248,0,0,0-.43419.18114,1.4175,1.4175,0,0,0-.65874,1.20212,1.41551,1.41551,0,0,0,1.41212,1.41212,1.41753,1.41753,0,0,0,1.20212-.65874,1.07268,1.07268,0,0,0,.18114-.43419A1.4121,1.4121,0,0,0,118.11779,26.50812Zm-1.57221.01232h.509q.75525,0,.75531.5829a.50471.50471,0,0,1-.33659.51726l.36945.7389h-.4105l-.30377-.67322h-.18063v.67322h-.40227Zm.40227.36126v.45154h.10673a.79863.79863,0,0,0,.30377-.041q.09027-.041.09031-.18886t-.08618-.18473a.87783.87783,0,0,0-.3079-.03691Z"/>
            <g>
              <path class="cls-2" d="M107.81862,8.82413V.79609A10.3018,10.3018,0,0,0,105.76.58965H97.52549a10.28454,10.28454,0,0,0-10.29306,10.2931v8.23448a10.30223,10.30223,0,0,0,.20639,2.05862h8.02806V8.82413Z"/>
              <path class="cls-2" d="M115.84664,8.82413h-8.028V21.17585H95.46688v8.028a10.3014,10.3014,0,0,0,2.05861.20644H105.76a10.28476,10.28476,0,0,0,10.2931-10.2931V10.88275A10.30223,10.30223,0,0,0,115.84664,8.82413Z"/>
            </g>
          </g>
          <g>
            <path class="cls-3" d="M36.63292,7.97249v5.471l-.00013.00013q-3.50888,0-5.15018,1.88663a6.51615,6.51615,0,0,0-1.64135,4.41468v9.65936H24.33238V8.42528h5.50887v3.01851A7.95765,7.95765,0,0,1,32.7654,8.897,8.31476,8.31476,0,0,1,36.63292,7.97249Z"/>
            <path class="cls-3" d="M38.8393,10.59489h5.24491V29.40425H38.8393Z"/>
            <path class="cls-3" d="M46.77328,2.72768h5.24548V7.70524a.26725.26725,0,0,0,.26725.26725h9.53046a.09213.09213,0,0,1,.07077.15112l-4.40745,5.061a.09213.09213,0,0,1-.07076.03314H52.286a.26725.26725,0,0,0-.26725.26725v7.39186a13.02065,13.02065,0,0,0,.07546,1.50919,5.91316,5.91316,0,0,0,.30187,1.28291,1.93,1.93,0,0,0,.717.98106,2.13664,2.13664,0,0,0,1.24513.33953,4.89858,4.89858,0,0,0,1.66024-.283,9.69681,9.69681,0,0,0,1.43639-.77906l2.46524,3.6875s-.79567.57433-1.16689.80815a11.07064,11.07064,0,0,1-1.77338.90559,7.81862,7.81862,0,0,1-2.99973.56593,7.9001,7.9001,0,0,1-3.32037-.6414,5.50471,5.50471,0,0,1-2.13194-1.60355,7.14225,7.14225,0,0,1-1.15076-2.528,15.64245,15.64245,0,0,1-.50936-2.90537q-.09461-1.33905-.09436-3.30159v-5.697h4.97823a.26725.26725,0,0,0,.26725-.26725V8.23974a.26725.26725,0,0,0-.26725-.26725H46.77328Z"/>
            <path class="cls-3" d="M70.176,7.97249a9.47681,9.47681,0,0,1,6.92383,2.77333q2.81045,2.77328,2.811,7.94255a15.05934,15.05934,0,0,1-.07548,1.73574l-15.01727,0A5.42915,5.42915,0,0,0,66.648,23.72555,5.17762,5.17762,0,0,0,70.1005,24.9519a4.9904,4.9904,0,0,0,4.52781-2.528L79.34486,24.801a10.352,10.352,0,0,1-3.84875,3.73549,10.816,10.816,0,0,1-5.39561,1.35826,10.44694,10.44694,0,0,1-7.69738-3.094,10.67957,10.67957,0,0,1-3.094-7.886A10.6103,10.6103,0,0,1,70.176,7.97249Zm-.07546,4.90515a5.166,5.166,0,0,0-2.94317.88669,5.29545,5.29545,0,0,0-1.962,2.43367h9.20651a3.28122,3.28122,0,0,0-.99991-2.245A4.34116,4.34116,0,0,0,70.1005,12.87764Z"/>
            <path class="cls-3" d="M.975.10528H6.51336V10.13111a8.202,8.202,0,0,1,6.0694-2.276,9.58807,9.58807,0,0,1,7.37815,3.05349,11.23759,11.23759,0,0,1,2.826,7.947,11.30633,11.30633,0,0,1-2.826,7.9663,9.55817,9.55817,0,0,1-7.37815,3.07284,8.20477,8.20477,0,0,1-6.0694-2.3143v1.821H.975ZM15.88308,14.49334a5.06339,5.06339,0,0,0-3.90726-1.70679,5.06121,5.06121,0,0,0-3.90726,1.70679,6.22656,6.22656,0,0,0-1.5552,4.36224,6.29527,6.29527,0,0,0,1.5552,4.38158,5.03521,5.03521,0,0,0,3.90726,1.72614,5.03737,5.03737,0,0,0,3.90726-1.72614,6.29782,6.29782,0,0,0,1.55521-4.38158A6.22907,6.22907,0,0,0,15.88308,14.49334Z"/>
            <rect class="cls-3" x="38.8393" y="2.72768" width="5.24491" height="5.24481"/>
          </g>
        </g>
      </g>
    </g>
  </g>
</svg>
