<svg xmlns="http://www.w3.org/2000/svg" xmlns:xlink="http://www.w3.org/1999/xlink" width="174" height="74" viewBox="0 0 174 74">
  <defs>
    <style>
      .cls-1 {
        fill: #fff;
        opacity: 0;
      }

      .cls-2 {
        fill: url(#linear-gradient);
      }

      .cls-3 {
        fill: url(#linear-gradient-2);
      }

      .cls-4 {
        fill: url(#linear-gradient-3);
      }

      .cls-5 {
        fill: url(#linear-gradient-4);
      }

      .cls-6 {
        fill: url(#linear-gradient-5);
      }

      .cls-7 {
        fill: url(#linear-gradient-6);
      }

      .cls-8 {
        fill: url(#linear-gradient-7);
      }

      .cls-9 {
        fill: url(#linear-gradient-8);
      }

      .cls-10 {
        fill: url(#linear-gradient-9);
      }

      .cls-11 {
        fill: url(#linear-gradient-10);
      }

      .cls-12 {
        fill: url(#linear-gradient-11);
      }

      .cls-13 {
        fill: url(#linear-gradient-12);
      }

      .cls-14 {
        fill: url(#linear-gradient-13);
      }

      .cls-15 {
        fill: url(#linear-gradient-14);
      }

      .cls-16 {
        fill: url(#linear-gradient-15);
      }

      .cls-17 {
        fill: url(#linear-gradient-16);
      }

      .cls-18 {
        fill: url(#linear-gradient-17);
      }

      .cls-19 {
        opacity: 0.6;
        fill: url(#linear-gradient-18);
      }
    </style>
    <linearGradient id="linear-gradient" x1="79.35663" y1="10.02337" x2="78.32603" y2="62.32624" gradientUnits="userSpaceOnUse">
      <stop offset="0" stop-color="#827aff"/>
      <stop offset="1" stop-color="#7ca3ff"/>
    </linearGradient>
    <linearGradient id="linear-gradient-2" x1="87.5606" y1="10.18502" x2="86.53" y2="62.4879" xlink:href="#linear-gradient"/>
    <linearGradient id="linear-gradient-3" x1="96.69325" y1="10.36498" x2="95.66265" y2="62.66785" xlink:href="#linear-gradient"/>
    <linearGradient id="linear-gradient-4" x1="104.72816" y1="10.5233" x2="103.69756" y2="62.82618" xlink:href="#linear-gradient"/>
    <linearGradient id="linear-gradient-5" x1="111.82754" y1="10.66319" x2="110.79694" y2="62.96606" xlink:href="#linear-gradient"/>
    <linearGradient id="linear-gradient-6" x1="121.23215" y1="10.8485" x2="120.20155" y2="63.15138" xlink:href="#linear-gradient"/>
    <linearGradient id="linear-gradient-7" x1="130.44809" y1="11.0301" x2="129.4175" y2="63.33297" xlink:href="#linear-gradient"/>
    <linearGradient id="linear-gradient-8" x1="139.22363" y1="11.20302" x2="138.19303" y2="63.50589" xlink:href="#linear-gradient"/>
    <linearGradient id="linear-gradient-9" x1="82.265" y1="10.08068" x2="81.2344" y2="62.38355" xlink:href="#linear-gradient"/>
    <linearGradient id="linear-gradient-10" x1="93.39491" y1="10.29999" x2="92.36431" y2="62.60286" xlink:href="#linear-gradient"/>
    <linearGradient id="linear-gradient-11" x1="102.54202" y1="10.48022" x2="101.51142" y2="62.7831" xlink:href="#linear-gradient"/>
    <linearGradient id="linear-gradient-12" x1="109.2078" y1="10.61157" x2="108.1772" y2="62.91444" xlink:href="#linear-gradient"/>
    <linearGradient id="linear-gradient-13" x1="116.75924" y1="10.76037" x2="115.72864" y2="63.06324" xlink:href="#linear-gradient"/>
    <linearGradient id="linear-gradient-14" x1="126.86152" y1="10.95943" x2="125.83092" y2="63.2623" xlink:href="#linear-gradient"/>
    <linearGradient id="linear-gradient-15" x1="135.71101" y1="11.1338" x2="134.68041" y2="63.43667" xlink:href="#linear-gradient"/>
    <linearGradient id="linear-gradient-16" x1="144.9057" y1="11.31498" x2="143.8751" y2="63.61785" xlink:href="#linear-gradient"/>
    <linearGradient id="linear-gradient-17" x1="46.10655" y1="9.3682" x2="45.07595" y2="61.67107" xlink:href="#linear-gradient"/>
    <linearGradient id="linear-gradient-18" x1="59.51097" y1="9.63232" x2="58.48037" y2="61.9352" xlink:href="#linear-gradient"/>
  </defs>
  <title>lourençocastanho</title>
  <g id="Layer_2" data-name="Layer 2">
    <g id="Layer_2-2" data-name="Layer 2">
      <rect class="cls-1" width="174" height="74"/>
    </g>
    <g id="Layer_1-2" data-name="Layer 1">
      <g>
        <g>
          <path class="cls-2" d="M78.22771,31.06647h4.07481v1.96675H75.74763V20.666h2.48008Z"/>
          <path class="cls-3" d="M84.9067,32.6231a3.94357,3.94357,0,0,1-1.5537-1.5537,4.6503,4.6503,0,0,1-.56361-2.3186,4.54827,4.54827,0,0,1,.58-2.31859,4.03486,4.03486,0,0,1,1.58389-1.5537,4.85437,4.85437,0,0,1,4.48307,0,4.035,4.035,0,0,1,1.5839,1.5537,4.561,4.561,0,0,1,.58,2.31859,4.46353,4.46353,0,0,1-.59506,2.3186,4.12015,4.12015,0,0,1-1.6078,1.5537,4.67481,4.67481,0,0,1-2.26386.54977A4.50853,4.50853,0,0,1,84.9067,32.6231Zm3.3307-1.62289a2.07368,2.07368,0,0,0,.8278-.858,2.90077,2.90077,0,0,0,.30822-1.39141,2.58478,2.58478,0,0,0-.64035-1.87827,2.11221,2.11221,0,0,0-1.56942-.65671,2.06134,2.06134,0,0,0-1.5537.65671,2.62308,2.62308,0,0,0-.62525,1.87827,2.656,2.656,0,0,0,.61015,1.87828,2.00746,2.00746,0,0,0,1.53861.6567A2.24112,2.24112,0,0,0,88.2374,31.00021Z"/>
          <path class="cls-4" d="M100.4121,24.46839v8.56483h-2.179V31.9513a2.85672,2.85672,0,0,1-1.08948.87309,3.38841,3.38841,0,0,1-1.46186.317,3.62117,3.62117,0,0,1-1.77763-.42523,2.99484,2.99484,0,0,1-1.21276-1.25176,4.13119,4.13119,0,0,1-.44158-1.97137V24.46839H94.415v4.71518a2.22474,2.22474,0,0,0,.50951,1.57006,2.05822,2.05822,0,0,0,2.79792,0,2.2193,2.2193,0,0,0,.51077-1.57006V24.46839Z"/>
          <path class="cls-5" d="M105.28958,24.73132a3.0441,3.0441,0,0,1,1.5386-.38622v2.272h-.57242a1.80585,1.80585,0,0,0-2.05566,2.15v4.26606h-2.16385V24.46839h2.16385v1.32976A3.05045,3.05045,0,0,1,105.28958,24.73132Z"/>
          <path class="cls-6" d="M115.66979,29.4h-6.26134a2.12712,2.12712,0,0,0,.64915,1.45305,2.00045,2.00045,0,0,0,1.40777.52587,1.76748,1.76748,0,0,0,1.716-1.03538h2.3337a3.8988,3.8988,0,0,1-1.42161,2.033,4.15331,4.15331,0,0,1-2.58152.79635,4.46605,4.46605,0,0,1-2.21921-.54977,3.84608,3.84608,0,0,1-1.5298-1.5537,4.75282,4.75282,0,0,1-.54851-2.3186,4.84271,4.84271,0,0,1,.541-2.33369,3.76874,3.76874,0,0,1,1.5147-1.54615,4.86228,4.86228,0,0,1,4.42835-.01509,3.69587,3.69587,0,0,1,1.49961,1.49079,4.51447,4.51447,0,0,1,.53341,2.21921A5.05944,5.05944,0,0,1,115.66979,29.4Zm-2.18021-1.45305a1.71889,1.71889,0,0,0-.60261-1.33732,2.13616,2.13616,0,0,0-1.438-.502,1.96448,1.96448,0,0,0-1.35241.48687,2.13767,2.13767,0,0,0-.6718,1.35241Z"/>
          <path class="cls-7" d="M124.017,25.31128a3.698,3.698,0,0,1,.94354,2.69727v5.02467h-2.16385V28.30294a2.22177,2.22177,0,0,0-.51077-1.5688,1.80614,1.80614,0,0,0-1.39141-.54977,1.8496,1.8496,0,0,0-1.41406.54977,2.19556,2.19556,0,0,0-.51831,1.5688v4.73028h-2.16386V24.46839h2.16386v1.06683a2.98,2.98,0,0,1,1.10583-.87309,3.41372,3.41372,0,0,1,1.47569-.317A3.29945,3.29945,0,0,1,124.017,25.31128Z"/>
          <path class="cls-8" d="M131.88611,30.14221h2.33495a4.03825,4.03825,0,0,1-1.19892,2.04057,3.83978,3.83978,0,0,1-2.1865.94354v.60261a2.32413,2.32413,0,0,1,1.42915.43277,1.4668,1.4668,0,0,1,.58,1.25176,1.50958,1.50958,0,0,1-.59506,1.28322,2.358,2.358,0,0,1-1.4606.44912h-2.19531V35.87768h1.83928a1.18643,1.18643,0,0,0,.56487-.10819.40453.40453,0,0,0,.19248-.38622.3863.3863,0,0,0-.19248-.37868,1.24607,1.24607,0,0,0-.56487-.10064h-.95864V33.12632a4.10142,4.10142,0,0,1-1.84682-.73471,3.8718,3.8718,0,0,1-1.23667-1.51469,4.92344,4.92344,0,0,1-.44032-2.12612,4.79857,4.79857,0,0,1,.541-2.32614,3.85007,3.85007,0,0,1,1.49961-1.54615,4.3301,4.3301,0,0,1,2.194-.54851,4.22257,4.22257,0,0,1,2.63689.79635,3.88007,3.88007,0,0,1,1.39895,2.23305h-2.33495a1.70085,1.70085,0,0,0-.62651-.87309,1.81488,1.81488,0,0,0-1.08947-.317,1.78187,1.78187,0,0,0-1.46815.673,2.97207,2.97207,0,0,0-.541,1.90847,2.95153,2.95153,0,0,0,.541,1.89463,1.78437,1.78437,0,0,0,1.46815.67181A1.64145,1.64145,0,0,0,131.88611,30.14221Z"/>
          <path class="cls-9" d="M136.58948,32.6231a3.94357,3.94357,0,0,1-1.5537-1.5537,4.6503,4.6503,0,0,1-.56361-2.3186,4.54837,4.54837,0,0,1,.58-2.31859,4.035,4.035,0,0,1,1.58389-1.5537,4.85568,4.85568,0,0,1,4.48371,0,4.03486,4.03486,0,0,1,1.58389,1.5537,4.56089,4.56089,0,0,1,.58,2.31859,4.46363,4.46363,0,0,1-.59506,2.3186,4.12015,4.12015,0,0,1-1.6078,1.5537,4.67556,4.67556,0,0,1-2.2645.54977A4.50852,4.50852,0,0,1,136.58948,32.6231Zm3.33133-1.62289a2.07374,2.07374,0,0,0,.8278-.858,2.90077,2.90077,0,0,0,.30822-1.39141,2.58478,2.58478,0,0,0-.64035-1.87827,2.11262,2.11262,0,0,0-1.57005-.65671,2.06134,2.06134,0,0,0-1.5537.65671,2.62308,2.62308,0,0,0-.62525,1.87827,2.656,2.656,0,0,0,.61015,1.87828,2.00746,2.00746,0,0,0,1.5386.6567A2.24175,2.24175,0,0,0,139.92081,31.00021Z"/>
          <path class="cls-10" d="M76.29318,42.15436a5.91589,5.91589,0,0,1,2.26575-2.2643,6.43827,6.43827,0,0,1,3.21937-.81283,6.33,6.33,0,0,1,3.65627,1.07119,5.59362,5.59362,0,0,1,2.19317,2.961h-2.871a2.98,2.98,0,0,0-1.20328-1.33826,3.54652,3.54652,0,0,0-1.79257-.44415,3.68276,3.68276,0,0,0-1.93626.508,3.45049,3.45049,0,0,0-1.31939,1.43406,5.23339,5.23339,0,0,0,0,4.34281,3.464,3.464,0,0,0,1.31939,1.44567,3.68267,3.68267,0,0,0,1.93626.508,3.46583,3.46583,0,0,0,1.79257-.45576,3.02555,3.02555,0,0,0,1.20328-1.34407h2.871a5.56415,5.56415,0,0,1-2.18446,2.96972,6.838,6.838,0,0,1-6.88435.24965,5.961,5.961,0,0,1-2.26575-2.25849,6.47338,6.47338,0,0,1-.82879-3.28034A6.5398,6.5398,0,0,1,76.29318,42.15436Z"/>
          <path class="cls-11" d="M88.67948,45.08711A3.80276,3.80276,0,0,1,90.086,43.5397a3.75525,3.75525,0,0,1,1.98647-.541,3.47628,3.47628,0,0,1,1.67825.38748,3.37458,3.37458,0,0,1,1.15112.97373V43.13712H97.082V51.702H94.90182V50.45145a3.2466,3.2466,0,0,1-1.15112.99638,3.54208,3.54208,0,0,1-1.69334.395,3.632,3.632,0,0,1-1.97138-.55858,3.89244,3.89244,0,0,1-1.4065-1.56753,5.04819,5.04819,0,0,1-.51706-2.3274A4.9571,4.9571,0,0,1,88.67948,45.08711Zm5.91286.98128a2.17758,2.17758,0,0,0-.83409-.86554,2.23153,2.23153,0,0,0-1.12848-.30194,2.17417,2.17417,0,0,0-1.93992,1.15238,2.67765,2.67765,0,0,0-.317,1.33606,2.78073,2.78073,0,0,0,.317,1.35366,2.28522,2.28522,0,0,0,.83409.88819,2.12041,2.12041,0,0,0,1.10583.30948,2.23152,2.23152,0,0,0,1.12848-.30193,2.17764,2.17764,0,0,0,.83409-.86554,3.10972,3.10972,0,0,0,0-2.70482Z"/>
          <path class="cls-12" d="M100.08,51.46293a3.32309,3.32309,0,0,1-1.32221-1.02909,2.60587,2.60587,0,0,1-.53342-1.4367h2.18021a1.18716,1.18716,0,0,0,.48687.82025,1.694,1.694,0,0,0,1.05928.32458,1.6391,1.6391,0,0,0,.96618-.24909.7459.7459,0,0,0,.34723-.63406.667.667,0,0,0-.42522-.624,7.87915,7.87915,0,0,0-1.35241-.45793,11.12663,11.12663,0,0,1-1.5688-.47806,2.74293,2.74293,0,0,1-1.05173-.75735,2.03372,2.03372,0,0,1-.44032-1.37631,2.21588,2.21588,0,0,1,.41013-1.29831,2.74291,2.74291,0,0,1,1.17376-.92845,4.41347,4.41347,0,0,1,1.80153-.33967,3.69075,3.69075,0,0,1,2.44315.76489,2.83621,2.83621,0,0,1,1.00392,2.06573h-2.07075a1.12539,1.12539,0,0,0-.42523-.8127,1.57908,1.57908,0,0,0-1.01273-.30194,1.60138,1.60138,0,0,0-.90454.21639.69165.69165,0,0,0-.317.60386.707.707,0,0,0,.43277.65671,6.718,6.718,0,0,0,1.34486.45541,11.44646,11.44646,0,0,1,1.531.48058,2.6934,2.6934,0,0,1,1.04293.7649,2.09851,2.09851,0,0,1,.45667,1.36625,2.27434,2.27434,0,0,1-.41012,1.331,2.68465,2.68465,0,0,1-1.175.91838,4.44824,4.44824,0,0,1-1.78518.33464A4.52794,4.52794,0,0,1,100.08,51.46293Z"/>
          <path class="cls-13" d="M109.12413,44.916V49.06a.81355.81355,0,0,0,.20883.624,1.01351,1.01351,0,0,0,.70326.19374h1.00518V51.702h-1.36121q-2.73627,0-2.73627-2.65953V44.916h-1.02028V43.13712h1.02028V41.86867l2.18021-1.41708v2.68553h1.91727V44.916Z"/>
          <path class="cls-14" d="M112.05288,45.08711a3.80276,3.80276,0,0,1,1.4065-1.54741,3.75525,3.75525,0,0,1,1.98647-.541,3.47628,3.47628,0,0,1,1.67825.38748,3.37458,3.37458,0,0,1,1.15112.97373V43.13712h2.18021V51.702h-2.18021V50.45145a3.2466,3.2466,0,0,1-1.15112.99638,3.54208,3.54208,0,0,1-1.69334.395,3.632,3.632,0,0,1-1.97138-.55858,3.89244,3.89244,0,0,1-1.4065-1.56753,5.04819,5.04819,0,0,1-.51706-2.3274A4.9571,4.9571,0,0,1,112.05288,45.08711Zm5.91286.98128a2.17758,2.17758,0,0,0-.83409-.86554,2.23153,2.23153,0,0,0-1.12848-.30194,2.17417,2.17417,0,0,0-1.93992,1.15238,2.67765,2.67765,0,0,0-.317,1.33606,2.78073,2.78073,0,0,0,.317,1.35366,2.28522,2.28522,0,0,0,.83409.88819,2.12041,2.12041,0,0,0,1.10583.30948,2.23152,2.23152,0,0,0,1.12848-.30193,2.17764,2.17764,0,0,0,.83409-.86554,3.10972,3.10972,0,0,0,0-2.70482Z"/>
          <path class="cls-15" d="M129.28068,43.98a3.7,3.7,0,0,1,.94354,2.69727V51.702h-2.16385V46.97167a2.21838,2.21838,0,0,0-.51077-1.56753,1.80251,1.80251,0,0,0-1.39141-.551,1.84579,1.84579,0,0,0-1.41405.551,2.1922,2.1922,0,0,0-.51832,1.56753V51.702H122.062V43.13712h2.16386V44.204a2.99284,2.99284,0,0,1,1.10583-.87309,3.41387,3.41387,0,0,1,1.4757-.317A3.29941,3.29941,0,0,1,129.28068,43.98Z"/>
          <path class="cls-16" d="M137.49767,43.43906a2.93933,2.93933,0,0,1,1.18257,1.253,4.29833,4.29833,0,0,1,.42522,1.98521V51.702h-2.16385V46.97167a2.21838,2.21838,0,0,0-.51077-1.56753,1.80251,1.80251,0,0,0-1.39141-.551,1.84583,1.84583,0,0,0-1.41406.551,2.19224,2.19224,0,0,0-.51831,1.56753V51.702H130.9432V40.26372h2.16386V44.204a2.82786,2.82786,0,0,1,1.11337-.87309,3.6857,3.6857,0,0,1,1.54615-.317A3.49138,3.49138,0,0,1,137.49767,43.43906Z"/>
          <path class="cls-17" d="M141.90589,51.29183a3.94839,3.94839,0,0,1-1.5537-1.55244,4.65176,4.65176,0,0,1-.56361-2.31985,4.54045,4.54045,0,0,1,.58-2.31734,4.04646,4.04646,0,0,1,1.58389-1.555,4.85568,4.85568,0,0,1,4.48371,0,4.04659,4.04659,0,0,1,1.58389,1.555,4.553,4.553,0,0,1,.58,2.31734,4.4649,4.4649,0,0,1-.59506,2.31985,4.12558,4.12558,0,0,1-1.60779,1.55244,4.66222,4.66222,0,0,1-2.2645.551A4.49574,4.49574,0,0,1,141.90589,51.29183Zm3.33133-1.62289a2.05875,2.05875,0,0,0,.8278-.858,2.89387,2.89387,0,0,0,.30822-1.39141,2.58163,2.58163,0,0,0-.64035-1.877,2.1126,2.1126,0,0,0-1.57005-.6567,2.06136,2.06136,0,0,0-1.5537.6567,2.6199,2.6199,0,0,0-.62525,1.877,2.65722,2.65722,0,0,0,.61016,1.87953,2.01176,2.01176,0,0,0,1.5386.65671A2.2429,2.2429,0,0,0,145.23722,49.66894Z"/>
        </g>
        <g>
          <path class="cls-18" d="M49.74317,47.264c4.233,5.31143,11.63347,4.98516,15.79024-.37077a9.70024,9.70024,0,0,1-.7733,1.447,21.07775,21.07775,0,0,1-14.358,9.6038c-16.29024,2.95127-29.58048-13.31143-23.5-28.75845A21.27881,21.27881,0,0,1,47.6097,15.71742a.09977.09977,0,0,1,.10805.11229q.00636,12.6483.00636,25.27964A9.98368,9.98368,0,0,0,49.74317,47.264Z"/>
          <path class="cls-19" d="M65.53341,46.89324c-4.15677,5.35593-11.55719,5.6822-15.79024.37077a15.04906,15.04906,0,0,0,4.85593-8.822,29.18423,29.18423,0,0,0,.2161-4.22457q.00636-8.29024,0-16.61016,0-.33685.30932-.20127A21.27576,21.27576,0,0,1,67.60121,41.14749,18.61894,18.61894,0,0,1,65.53341,46.89324Z"/>
        </g>
      </g>
    </g>
  </g>
</svg>
