<svg xmlns="http://www.w3.org/2000/svg" xmlns:xlink="http://www.w3.org/1999/xlink" width="174" height="74" viewBox="0 0 174 74">
  <defs>
    <style>
      .cls-1 {
        fill: #fff;
        opacity: 0;
      }

      .cls-2 {
        fill-rule: evenodd;
        fill: url(#linear-gradient);
      }
    </style>
    <linearGradient id="linear-gradient" x1="92.10858" y1="14.68983" x2="91.31358" y2="58.01702" gradientUnits="userSpaceOnUse">
      <stop offset="0" stop-color="#827aff"/>
      <stop offset="1" stop-color="#7ca3ff"/>
    </linearGradient>
  </defs>
  <title>mdiasbranco</title>
  <g id="Layer_2" data-name="Layer 2">
    <g id="Layer_2-2" data-name="Layer 2">
      <rect class="cls-1" width="174" height="74"/>
    </g>
    <g id="Layer_1-2" data-name="Layer 1">
      <path id="path2" class="cls-2" d="M41.32156,49.08709c.5086-.07476,2.64263.76239.49593,1.62392l-.196.016c-.25052.12715-2.87732-.61336-.65991-1.59991Zm12.26227-1.09993q-.30795.00393-.61593.008l-1.48378.06-1.11585.076-.404.052-.24794.016c-3.15126-.1628-5.00174,3.19738,1.31981,3.71581l.48392.02h.18a2.5933,2.5933,0,0,0,.57594-.004l.4799-.016a9.54755,9.54755,0,0,0,2.60362-.584l.112-.028A7.66738,7.66738,0,0,0,59.207,48.14316l-.016-.024-1.05187-.06c-.17053-.0037-.1351-.00641-.77187-.016l-1.15984-.04c-.36429-.00679-1.2793-.01609-2.62364-.016Zm38.71856-.032-.72392.012-.37995.008-.38394.008-.90787.036c-.42605.06769-.89973.02634-1.31182.092l-.36393.02c-.30329.05145-.65153.06148-.94786.112l-.256.02c-.21273.03954-.4654.06935-.67189.112l-.192.02c-.26526.05782-.55692.11632-.81189.18l-.148.024c-.1832.05592-.38835.12025-.56393.176a2.71568,2.71568,0,0,0-1.48778.88795.95465.95465,0,0,0-.12.85992,2.19432,2.19432,0,0,0,.376.62,2.33325,2.33325,0,0,0,.49194.492,2.06019,2.06019,0,0,0,.35594.164c.23835.10524.50323.202.7519.304.11532.04728.21947.05722.34.096a13.43815,13.43815,0,0,0,1.64376.376l.61592.068.228.012.368.008a2.36867,2.36867,0,0,0,.59192,0c.092-.00146.184-.00262.276-.004l.27194-.012.39995-.048.32-.028c.39493-.07869.81119-.12588,1.17186-.236l.176-.032a15.186,15.186,0,0,0,1.87175-.664,11.96428,11.96428,0,0,0,1.37181-.776,5.11776,5.11776,0,0,0,1.24381-1.06393,2.75713,2.75713,0,0,0,.45192-.65594,1.31155,1.31155,0,0,0,.152-.836l-.032-.156c-.01487-.03062-.05014-.09644-.084-.108l-.224-.012-.46-.032c-.084-.00145-.168-.00262-.252-.004q-.52983-.01-1.05982-.02l-.54794-.012-.51991-.008H92.30238Zm40.84623-.95594-.80389.052c-.09009.01494-.21221-.02377-.288.008a2.46515,2.46515,0,0,0-.256.412,6.3319,6.3319,0,0,0-.46394.87593,2.686,2.686,0,0,0-.12.264c-.03463.11915-.1722.517-.036.624a.2188.2188,0,0,0,.164.048.597.597,0,0,0,.216-.148l.296-.228a9.016,9.016,0,0,0,1.29981-1.30394c.0912-.11737.1831-.23257.272-.356.03689-.05124.1108-.10707.112-.188l-.016-.028a1.648,1.648,0,0,0-.376-.032Zm-39.1465-1.7319a2.779,2.779,0,0,1-.45192.132c-.24415.07639-.501.12924-.76788.196-.46193.11552-.96939.1959-1.44779.308l-.208.024c-.187.03744-.41453.07291-.60394.112l-.264.028c-.37012.07709-.78986.10035-1.16786.172l-.27194.02c-.2923.04909-.63661.05136-.93588.104-.13486.02371-.36349-.03465-.328.148l.028.028h.7799c.072.00146.144.00263.216.004l.40394.012.41993.02.328.008.22.008.56389.048.428.02c.34968.05553.74747.05953,1.09182.116l.304.02c.26507.045.57793.06627.83986.112l.308.028c.13212.0271.273.0294.424.056.38487.06778.80734.11188,1.18783.184l.192.016c.15592.02817.31624.04066.48792.072.04678.00854.11947.03993.172.02.05171-.03-.00884-.13308-.028-.16-.10826-.15163-.207-.303-.32-.448l-.304-.332a2.99314,2.99314,0,0,0-.43593-.44c-.12749-.10287-.23554-.22767-.368-.328-.10254-.07767-.33967-.30669-.49194-.308Zm40.15038-.376-.132.04a2.4268,2.4268,0,0,0-.27594.14c-.16589.10963-.335.21379-.49194.332-.06933.0522-.12577.12182-.192.176-.04308.0352-.269.27083-.224.34.02248.03447.10782.024.164.024q.234-.00175.46794-.004a3.58651,3.58651,0,0,0,.69989-.044c.049-.03515.04185-.11719.06-.184a1.441,1.441,0,0,0,.004-.67195c-.01729-.06521-.012-.10925-.052-.148h-.028Zm-63.647-.048a7.50247,7.50247,0,0,0-1.25985.95194l-.256.248c-.422.59691-1.44568.9697-1.95971,2.51188.405-.19274.21243-.0879.95988-.672l.192-.164.28393-.268a17.42421,17.42421,0,0,0,1.80776-2.04786,2.34024,2.34024,0,0,0,.29195-.544.11174.11174,0,0,0-.06-.016Zm40.05835-.212a5.6562,5.6562,0,0,0-.98385.776l-.18.184a2.14417,2.14417,0,0,0-.312.312c-.12562.15577-.2895.28227-.416.44l-.38394.412c-.20617.25824-.427.50325-.6319.764a7.97449,7.97449,0,0,0-.54794.836c-.02488.04132-.10727.28092-.048.32.05736.0378.236-.09657.272-.124.23708-.18048.447-.37044.6639-.568a7.99163,7.99163,0,0,0,.89988-.95194l.30793-.344c.29422-.388.60878-.75251.89189-1.15592.10036-.143.20568-.28983.30394-.436l.108-.196c.04048-.05882.14326-.18978.092-.268h-.036ZM65.1062,44.03539c1.428-1.092-.80483,7.52309-3.79882,6.34045.281-1.3878,1.33628-4.89733,3.53088-6.31645l.26794-.024Zm21.709-.116-.112.02c-.16164.04205-.32805.07425-.48792.12a2.513,2.513,0,0,0-.85188.448c-.07737.06171-.31219.30253-.212.448a1.49246,1.49246,0,0,0,.61189.292c.05382.00986.20629.06121.236.044.07679-.04459.121-.17132.172-.244.13194-.18836.2643-.38105.38394-.58l.26-.388c.02593-.04538.09656-.09079.056-.152l-.056-.008Zm-16.36171-.064c1.15107-.259,4.43,1.151,1.51981,2.34784l-.1.172a14.29842,14.29842,0,0,0-1.37981,2.51188l.02.028c1.14917-.03218,1.05021-.98464,2.57962-1.71591l.188-.024a2.51151,2.51151,0,0,1,1.30383.12,3.77763,3.77763,0,0,0,.052.996c.14559.21735.03952.29051,1.01985.944-.06187-1.04736-.46513-1.02353-1.21984-2.98384l-.028-.248a1.86982,1.86982,0,0,1,1.26381-2.00786l.248-.02.55593-.056.224-.008.47194-.032a2.653,2.653,0,0,1,.70391.004l.52793.048c.99543.01257,2.59869,1.714.52391,3.11181l-.276.04c-3.07661.8463,1.39892-3.47014-1.94773-2.13187l-.044.176c-.19363,1.0161.14153,1.8144.87587,3.4798l.036.136a3.80583,3.80583,0,0,1,.176.616l.024.22c.0124.6218-.252,1.10572-1.86373.95195l-.224.008a6.01237,6.01237,0,0,1-2.37167-1.10392c-1.36908-1.30713-2.93965,2.9216-5.37124.2-.09453.00009-.14644.09657-.204.14-5.40341,2.78859-3.27314-3.74967,2.21171-5.84367l.37195-.068.132-.008Zm18.5014-.056c-.15323.072-.19634.24755-.28.388-.10147.17045-.20556.34972-.30793.52l-.104.2c-.03345.04721-.20557.30583-.184.364l.008.016a1.6349,1.6349,0,0,0,.41194-.032l.24-.008.53592-.048.59193-.028.47593-.048.204-.008c.442-.07026.90686-.08377,1.31579-.18l.228-.032c.14012-.03753.31368-.08123.45195-.112.09572-.02129.25672-.02686.3-.1l-.016-.04c-.45085-.165-.93092-.305-1.39979-.448-.16044-.04888-.3028-.05092-.46394-.096a7.16534,7.16534,0,0,0-2.00771-.308ZM66.23807,41.93551c4.69986.97565-3.77418,2.21094-.424.048l.424-.048Zm23.19674-3.10785-.46793.016-.252.012-.6919.08c-.2126.04941-.433.075-.6479.124a8.421,8.421,0,0,0-1.08385.336c-.07134.0268-.15727.08292-.228.112a4.75034,4.75034,0,0,0-1.09984.636c-.12282.095-.2319.21166-.35194.308a1.64194,1.64194,0,0,0-.448,1.7559,4.092,4.092,0,0,0,.64792.92394,1.87879,1.87879,0,0,0,.28.32c.07064.0238.145-.02916.192-.048.13373-.05361.264-.05562.404-.1a13.23129,13.23129,0,0,1,1.29581-.312c.13093-.02686.23884-.04462.35594-.068a.9966.9966,0,0,0,.336-.068c.08966-.06125.16659-.272.228-.372.10186-.16589.21694-.34072.308-.512a2.49059,2.49059,0,0,1,.204-.348.52469.52469,0,0,1,.17995-.12,2.053,2.053,0,0,1,.85188-.196c.17015-.011.44194-.00507.51594.088.07157.09-.03424.27022-.064.344a6.91069,6.91069,0,0,1-.292.656c-.03351.06353-.13182.18033-.116.268.05673.07131.39884.05357.51994.076.169.0313.36064.02378.54791.056.26565.0457.5777.064.8359.112l.24793.024c.22409.04707.46082.0763.68791.128.20239.04608.42676.11558.61592.18l.132.024c.217.06618.43781.13212.6679.196.209.058.42538.14186.64792.188a.56645.56645,0,0,0,.23994.044c.07266-.01846.27236-.25161.324-.316a2.6095,2.6095,0,0,0,.65991-1.27189,1.56238,1.56238,0,0,0-.056-.636,2.2112,2.2112,0,0,0-.84788-1.17194,8.5808,8.5808,0,0,0-5.27922-1.46791Zm-36.63087-.828a14.64882,14.64882,0,0,1,3.74346.44l.14.024a6.48287,6.48287,0,0,1,2.38766,1.28393l.312.288a3.517,3.517,0,0,1,.51594.51195l.37192.4a8.25883,8.25883,0,0,1,1.67179,3.26383l.028.22a4.45113,4.45113,0,0,1,.056,1.37593l-.02.308c-.53274,3.363-3.92215,6.62587-8.10687,7.79156l-.148.028a11.398,11.398,0,0,1-2.79158.452l-.388.008c-.10977-.00154-.135-.0046-.64792-.012l-.69589-.072c-3.07964.24642-9.00859-6.66439-1.20386-7.6236q.56589-.048,1.13187-.096c1.59412.0067,2.14987-7.09508,4.94318-4.49233-.46307.9302-1.05107,1.93036-1.85163,3.54035l-.35194.704c-.02978.07-.11874.182-.076.26.33969.07763.26963.007,1.71574.172l.28.016.47992.06.24.016c1.351-.35748,5.48851,2.203,5.46323-.99594l.008-.2v-.276l-.008-.192a5.27707,5.27707,0,0,0-1.75176-3.36782l-.176-.176a10.74893,10.74893,0,0,0-6.3951-2.59186l-.336-.008c-1.99942-.05744-5.16695,1.3517-2.66308,4.81557-3.65769,1.92066-4.76757-4.81145,1.61124-5.60354l.204-.028c.18266-.0406.41217-.07714.60387-.112l.73991-.08Q52.322,38.02572,52.80394,37.9997ZM155.4415,46.89521h.036v.148h-.036a.14782.14782,0,0,1-.064.12c-5.20739-.03431-11.4048-.34659-18.42142-.328l-.85587.02a10.61964,10.61964,0,0,1-3.48351,3.58381l-.41993.148a.9394.9394,0,0,1-.304,0c-.072-.00146-.144-.00263-.216-.004a3.16056,3.16056,0,0,1-3.00673-1.99629c-1.20123.86262-5.42044,3.91025-6.48395.25641l-.012-.008-.036.02c-.15927,1.14214-1.4879,1.343-3.30753,1.85591l-.176.016c-3.06608.17934-1.29993-1.79445.78389-4.45975l.23994-.316c.04-.21008.00012-.521-.75988.052l-.328.26-.39593.356A29.14486,29.14486,0,0,0,115.879,48.9551l-.312.324c-.20728.25951-.4656.47762-.67189.736l-.28.312-.112.12a2.047,2.047,0,0,1-1.68774.132l-.084-.052c.12923-.0478-.72731-.11554-.204-.708l.104-.172.188-.224c.05953-.0754.2407-.214.248-.32-.36479.19291-.139.10791-.83988.54-.85144.30149-2.901,1.91691-4.23944.116l-.016-.004c-.69722.35236-2.5105,1.99967-3.66749-.072l.008-.188a.0478.0478,0,0,0-.056-.02l-.18395.104c-.82241.334-4.2888,2.40524-4.24342-.188l.048-.084a9.202,9.202,0,0,1,1.94772-2.95182l.61592-.664c.04349-.04346.21735-.17856.208-.24a.91365.91365,0,0,0-.98785.132l-.43594.424-.168.18c-.286.28224-.17549.20233-.7199.75594l-.24.248c-.16355.19685-.53722.56608-1.27183,1.52393l-.028.2c-.3624,2.01519-.85681,2.76057-4.43937,4.45574l-.104.028a16.08823,16.08823,0,0,1-2.21569.708l-.144.02c-.25587.06023-.551.12145-.81588.18l-.192.02c-.20755.04139-.462.07137-.6759.112l-.30792.024c-.35075.05991-.768.04194-1.13986.1l-.492.012H87.547l-.57591-.04-.336-.016-.65191-.072c-4.48435-.08219-9.17639-5.97924-.96383-7.69957l.176-.032c.04771-.03024.12856-.14407.092-.208-.312.05209-3.765-.53843-1.59178-2.23987l.288-.212c.03789-.02351.12824-.05553.1-.128-.00647-.01366-.0065-.01339-.02-.02a.2773.2773,0,0,0-.124.008H83.5836c-2.3035-.71024-1.70078-5.20571,3.25955-5.7837l.18-.024a12.31749,12.31749,0,0,1,1.61978-.244c.18674-.00806.24816-.01712,1.12785-.056.15008-.024.17334.00437.97586.012l.85587.048a16.0583,16.0583,0,0,1,2.08773.368l.16.028c2.2516.35474,5.65876,3.31885,2.30766,5.89168-.29356.5939.849.65813,1.64778,1.91991l.33194.48c.253.26387.14725.38482.88786-.388l.248-.256c.23324-.29186.50506-.55208.72789-.856l.228-.452c-.12169-.45113,2.28275-1.65755,2.13971-.424l-.032.128a.35693.35693,0,0,0-.04.1c.30369.01173.13958-.02135.77188-.14,5.10132-.28016.55659,1.04458-1.08019,4.39506.29048.94038,2.67165-1.71313,2.596-.03132l.02-.004c.10092-.03877.07751-.2123.63594-.95993.19185-.24782.39744-.48284.59592-.724l.36795-.38c1.14465-.77563,2.05552-2.64486,4.64734-2.91585.07333.00146.14665.00263.22.004.98487-.25363,3.36928,1.39652,1.16784,2.25189l-.144.036a15.40772,15.40772,0,0,0-2.01974,3.03184c1.16148-.1578,2.33733-1.37362,4.29538-1.47194.98091-.49331,1.86328-4.284,4.05094-3.38036.06365.18069.42755.35883-.25149,1.02448l.016.024c3.73069-1.81623,5.41616-1.36288,1.17182,3.71579a8.21962,8.21962,0,0,0,1.93574-.816l.104-.036c1.79615-.17968,2.02487-3.88088,5.25524-4.39177.22989.005.102.00375,1.01587.024l.54794.068c2.82821.379.104,5.45642-2.1959,2.9764.01027-.26877,1.56927-.64457,1.36-2.06046a.60825.60825,0,0,0-.336.052l-.116.032c-.69668.00715-4.27131,5.33293-.91186,3.86779l.116-.028a15.51045,15.51045,0,0,0,3.64348-1.8639l.052-.072a7.316,7.316,0,0,1,2.73161-2.63184l.176-.028.16-.048a2.8879,2.8879,0,0,1,.97187.052l.188.012.39992.06.208.016c.62619.24579,1.39056.16429,1.71177,1.71591.474-.00248.607.006,2.01571-.024.21151-.00617.18278-.01545,1.14386-.04q.61983-.032,1.2398-.064l.35994-.008q.50988-.032,1.01987-.064l.34794-.012c.25447-.04.52913-.01462.79591-.056l.292-.012.67592-.052.32-.012.54391-.048.268-.008.304-.02c.44932-.07391.95754-.03395,1.40783-.104l.268-.008.59192-.048.264-.012c.25751-.03987.53035-.01341.7759-.052l.47593-.02.93587-.06.36394-.008,1.09984-.06.456-.008.168-.008.092-.056a3.17009,3.17009,0,0,1,2.83961,1.97587ZM27.4955,50.171v-.028l.036-.004c1.71068-3.00627,2.08667-7.21782,4.88331-10.6954l.08-.044c.00643.07423,1.34982-.61136.81588.996l-.032.24c-.07813.37161-.05833.27972-.308,1.77188l-.024.264-.048.284-.02.276-.048.352-.012.252c.11126.88654-.70756,3.9177,1.32781,4.44776l.284-.04c3.97578-1.898,4.10187-6.72585,7.295-10.51139l.108-.036c3.73338-2.18055-6.64947,18.1726-6.52308,20.30688l-.032.132c-.08406.20486-.15242.43913-.23595.644l-.028.124c-4.15216,5.567-.31173-6.09059,1.59977-9.87142l-.02-.024a16.55586,16.55586,0,0,1-2.09571.832l-.144.024a3.91458,3.91458,0,0,1-2.07171.072l-.148-.032c-.07656-.03132-.16718-.08167-.24-.112l-.072-.024a2.5878,2.5878,0,0,1-.71191-.608l-.1-.156a3.41769,3.41769,0,0,1-.49194-1.156l-.016-.004c-.463.62295-1.26834,4.365-2.97559,2.32787h-.032ZM97.27368,34.064c.48757-.16789,2.05994.78347,3.95546.77994-2.42081,2.2935-6.65413,2.2349-11.59035,1.328A37.77768,37.77768,0,0,1,97.27371,34.064Zm1.3918-5.55171a.23821.23821,0,0,1,.12.016c-1.95357,2.9951-5.85874,5.25584-9.89057,6.29166,2.35249-1.87165,4.27641-6.145,9.77061-6.30767Zm6.60308-3.92779a.11988.11988,0,0,1,.08.016l-.004.028a17.47471,17.47471,0,0,1-8.90274,7.58359C98.71644,30.19994,98.82778,26.05839,105.26856,24.58447Zm17.85751-2.96783c-1.96367,2.00209-6.67352,3.65825-10.83049,6.31966v.02l.008.008c2.7486.27264,7.06682-4.26637,12.50223-6.07165-.82779.73166-6.80044,3.35878-10.95042,6.28309,3.51334-.11859,7.22306-4.2607,11.75369-5.6109-6.44548,2.68087-11.49651,9.15157-20.50052,8.7833l.004.008c.44344-.0764,1.7635.67886,3.48351.512l.016.02c-2.05191,2.53184-7.46446,2.5153-11.54637,2.0599l.012-.016A153.22834,153.22834,0,0,0,123.12607,21.61664Zm-3.14358-.94392-.012.016v.008l.004.004h.004l.024-.02C119.99457,20.6743,119.99693,20.67549,119.98249,20.67272Zm.092-.068c-.014.01042-.01779.00817-.024.028h.02l.02-.016v-.012Zm-.22-.396-.012.016v.004l.024-.004.004-.016Zm.088-.064-.008.012v.004h.016l.012-.012v-.004Zm2.05572-6.19166c-.17119,1.59975-3.99223,1.91439-11.29444,8.99951,2.15765-1.07505,1.25356-1.618,10.67686-7.35534-1.72034,1.8115-3.9938,1.7479-11.37275,8.79925l.008.004c3.16709-1.94926,6.75675-5.47019,11.34952-7.91168-2.3517,1.38646-5.82091,5.17391-18.49652,12.53542l-.004-.004v-.016c4.2678-7.312,7.62878-5.997,19.13333-15.05117Zm-1.98374,6.15568c2.04083-1.4497,4.3016-3.19991,8.37885-6.14766.04544.02934.09544.058.1.128-2.00535,1.61549-4.97114,3.75849-8.34683,6.48364,2.08064-1.22786.48354-.85109,8.634-6.09173-6.07252,5.35219-52.69555,39.45771-74.93666,16.53115l.004-.004C69.788,46.44032,103.37319,33.0205,128.204,13.75693c-1.95283,1.51956-4.40011,3.38517-8.18959,6.33183v.02Z"/>
    </g>
  </g>
</svg>
