<svg xmlns="http://www.w3.org/2000/svg" width="62" height="12" viewBox="0 0 62 12">
  <defs>
    <style>
      .cls-1 {
        fill: #fff;
        opacity: 0;
      }

      .cls-2 {
        fill: #56586f;
      }
    </style>
  </defs>
  <title>toshiba</title>
  <g id="Layer_2" data-name="Layer 2">
    <g id="Layer_2-2" data-name="Layer 2">
      <rect class="cls-1" width="62" height="12"/>
    </g>
    <g id="Layer_1-2" data-name="Layer 1">
      <g>
        <path class="cls-2" d="M14.68621,10.59046H13.03835c-.01468-.00912-.02872-.02493-.04412-.02638-.27174-.02562-.54495-.03974-.81519-.076a3.57358,3.57358,0,0,1-1.158-.3408,2.31859,2.31859,0,0,1-1.20153-1.665,7.91627,7.91627,0,0,1-.15685-1.70939c-.00724-.76333.01052-1.52753.04273-2.2903a6.33782,6.33782,0,0,1,.14159-1.063,2.21047,2.21047,0,0,1,1.05049-1.50607,3.8954,3.8954,0,0,1,1.605-.45251c.13186-.014.26308-.03411.3946-.0514h1.93035a.19374.19374,0,0,0,.05583.02685c.28218.03313.56634.05359.84649.09893a3.033,3.033,0,0,1,1.13577.403,2.31585,2.31585,0,0,1,1.01753,1.482,7.94257,7.94257,0,0,1,.17857,1.75282,19.13138,19.13138,0,0,1-.06457,2.63959,5.72312,5.72312,0,0,1-.19351,1.00377,2.0987,2.0987,0,0,1-1.051,1.29959,4.69619,4.69619,0,0,1-1.93989.447A.85709.85709,0,0,0,14.68621,10.59046ZM12.21,6.001l-.00231-.00011c0,.26585-.00939.53213.00271.79743a5.73227,5.73227,0,0,0,.07354.75456.95272.95272,0,0,0,.59522.81643,2.55682,2.55682,0,0,0,.684.1248,6.0566,6.0566,0,0,0,.84378-.02043A.95694.95694,0,0,0,15.286,7.975a2.213,2.213,0,0,0,.19733-.71224c.04249-.45068.04482-.90558.0526-1.35892a7.46229,7.46229,0,0,0-.024-.78545,5.29562,5.29562,0,0,0-.123-.86335.87892.87892,0,0,0-.70473-.68548,4.09814,4.09814,0,0,0-1.63908-.00116.87664.87664,0,0,0-.64807.51512,2.28616,2.28616,0,0,0-.183.873C12.19641,5.30388,12.21,5.65278,12.21,6.001Z"/>
        <path class="cls-2" d="M24.26733,1.40954a.685.685,0,0,0,.11463.02726,5.48976,5.48976,0,0,1,1.291.19448,1.74077,1.74077,0,0,1,1.22047,1.27118,4.24584,4.24584,0,0,1,.11743.67713c.02331.2251.01609.45323.02736.67978.0042.08441-.02888.10756-.10895.10733q-1.08834-.00321-2.1767,0c-.09292.00029-.122-.03823-.12516-.12639a2.06855,2.06855,0,0,0-.03569-.33629.60546.60546,0,0,0-.47911-.48984,3.4497,3.4497,0,0,0-1.601-.00606.668.668,0,0,0-.4945.83969,1.1485,1.1485,0,0,0,.09787.34312.60612.60612,0,0,0,.49911.303c.29326.03994.5905.05019.88586.07526.44285.03759.88752.0621,1.32767.12044a5.19545,5.19545,0,0,1,1.04808.21389,1.94124,1.94124,0,0,1,1.30749,1.54158A5.30071,5.30071,0,0,1,27.245,8.189a2.49981,2.49981,0,0,1-.41217,1.35424,1.97562,1.97562,0,0,1-.63606.55653,3.01994,3.01994,0,0,1-1.26987.39191c-.26784.025-.53594.04727-.80378.07236-.01538.00144-.02942.01726-.04409.02639H22.643a.18548.18548,0,0,0-.05588-.02679c-.33355-.03274-.668-.05777-1.00076-.09679a2.96177,2.96177,0,0,1-1.10912-.32915,1.72885,1.72885,0,0,1-.865-1.18809,5.82053,5.82053,0,0,1-.09816-1.3176c0-.10166.03474-.12348.12876-.12277.51773.00391,1.03551.00186,1.55327.00187.204,0,.40793.00054.6119-.0003.05487-.00022.10022.00059.1019.077a2.33122,2.33122,0,0,0,.02355.30333.71043.71043,0,0,0,.27894.52769,1.30129,1.30129,0,0,0,.72193.194c.33972.011.68088-.00322,1.0207-.02066a.86781.86781,0,0,0,.56662-.21731.84875.84875,0,0,0,.185-.82616.5213.5213,0,0,0-.3558-.441,3.13544,3.13544,0,0,0-.645-.14221c-.57918-.05262-1.16147-.07164-1.74028-.12727a4.93191,4.93191,0,0,1-.91521-.16856,1.88424,1.88424,0,0,1-1.42727-1.483,3.593,3.593,0,0,1-.08354-1.1146c.02591-.25179.03032-.50731.07624-.75526a2.07034,2.07034,0,0,1,1.52782-1.68868,8.4015,8.4015,0,0,1,1.24356-.191c.03874-.00566.07647-.01826.11467-.02763Z"/>
        <path class="cls-2" d="M61.13225,10.42567c-.04638.00445-.09275.01272-.13914.01277-.7767.0008-1.55343-.00214-2.33009.00352-.11566.00084-.15605-.04575-.18408-.14561-.13113-.46706-.26945-.93209-.40032-1.39922-.02347-.0838-.06475-.10411-.14732-.10383q-1.32979.00444-2.65961.00039c-.0885-.00024-.13519.013-.16279.115-.12967.47927-.27261.95494-.40993,1.43215-.01781.06188-.04316.09992-.1196.09969-.812-.00248-1.624-.00141-2.436-.00212a.58822.58822,0,0,1-.08911-.01533c.06045-.20017.118-.39194.17626-.58346Q52.73569,8.18,53.241,6.52041q.4722-1.55376.9425-3.10809c.17559-.57952.35281-1.15857.52356-1.73952.02761-.09393.07183-.11748.16495-.11722q1.71815.00477,3.43631-.00068a.15823.15823,0,0,1,.18517.13537q.45233,1.51716.91545,3.03108.5466,1.79893,1.09505,3.59732c.19288.63479.38317,1.27036.57593,1.90518a.74181.74181,0,0,0,.0523.10766ZM57.47677,6.798l-.87988-3.04008L55.71656,6.798Z"/>
        <path class="cls-2" d="M.86775,1.55078c.05456.003.10911.00856.16367.00857q3.80748.00064,7.615.00038c.17364,0,.17368.00007.17369.16951,0,.6434-.002,1.28683.0021,1.93021.00061.0973-.02613.12586-.12456.12539-.78855-.00382-1.57712-.00213-2.36569-.00213H6.18071V3.9449q0,3.16016,0,6.32031c0,.175,0,.17506-.18034.17506-.78464,0-1.5693-.00188-2.35392.00221-.1072.00056-.13949-.02785-.13932-.1382q.00491-3.17781.00242-6.35562V3.79944a.16257.16257,0,0,0-.04108-.01471q-1.30035.00067-2.60071.00243Z"/>
        <path class="cls-2" d="M49.87364,5.80144a2.59367,2.59367,0,0,1,.844.39761A1.64828,1.64828,0,0,1,51.34377,7.207a3.34893,3.34893,0,0,1-.06636,1.813,1.86211,1.86211,0,0,1-1.15692,1.15916,3.539,3.539,0,0,1-1.26688.23965c-1.64261.01146-3.28528.0143-4.92792.02016-.162.00058-.1621-.00009-.1621-.15721q0-4.283,0-8.56593c0-.15863.0001-.15882.16054-.15874,1.5414.00078,3.08285-.00579,4.62415.00661a4.1567,4.1567,0,0,1,1.51282.24783,1.75257,1.75257,0,0,1,1.12895,1.36712,3.28311,3.28311,0,0,1,.00528,1.324,1.51227,1.51227,0,0,1-.82076,1.08758C50.21783,5.67178,50.04824,5.72871,49.87364,5.80144Zm-3.59364.999V8.373a.17908.17908,0,0,0,.03909.0106c.61128-.0002,1.22293.01136,1.83369-.00695a.637.637,0,0,0,.62464-.42588,1.299,1.299,0,0,0,.03631-.63618.53.53,0,0,0-.45367-.48035,1.39642,1.39642,0,0,0-.26431-.03684c-.56818-.00351-1.13638-.00221-1.70458-.00213C46.35671,6.79532,46.32225,6.79844,46.28,6.80049Zm-.00206-1.76121c.49155,0,.96966.00172,1.44774-.001a3.3418,3.3418,0,0,0,.43271-.02409.58889.58889,0,0,0,.45459-.272.85769.85769,0,0,0,.10047-.54889.58528.58528,0,0,0-.49116-.56973,1.52643,1.52643,0,0,0-.291-.02786c-.50992-.00266-1.01987-.00124-1.52981-.00124h-.1235Z"/>
        <path class="cls-2" d="M34.30591,4.77726V4.622q0-1.45347,0-2.90693c0-.15761.0002-.15769.16214-.1577.74144,0,1.4829.00181,2.22432-.00208.10428-.00055.142.02239.14187.13589q-.00474,4.30741-.00046,8.61485c.00009.10095-.02389.13579-.13017.1352q-1.13567-.00632-2.27137.0002c-.10951.00067-.1285-.03926-.12822-.137.003-1.03565.00185-2.07132.00185-3.107V7.03578H31.41924v.13856c0,1.03958-.0015,2.07918.00224,3.11875.00039.10853-.02277.1493-.14055.14849q-1.118-.0076-2.23607-.00037c-.108.0006-.138-.03025-.13787-.13914q.00449-4.30154-.00008-8.60308c-.00012-.11471.033-.14471.14529-.144q1.118.007,2.23607.00028c.10256-.00055.13364.02735.13323.13209-.00381.98073-.00226,1.96148-.00226,2.94223v.14768Z"/>
        <path class="cls-2" d="M41.54163,5.99938q0,2.14771.00237,4.29542c.00028.11132-.02694.14748-.14256.14673q-1.12971-.00735-2.25948-.00056c-.10018.00048-.13477-.0236-.13466-.13058q.00433-4.31307.00059-8.62615c-.00007-.095.02376-.1294.12443-.12891q1.1415.00565,2.283-.00029c.109-.00064.12838.03894.12819.13715Q41.53938,3.84579,41.54163,5.99938Z"/>
      </g>
    </g>
  </g>
</svg>
