<svg xmlns="http://www.w3.org/2000/svg" xmlns:xlink="http://www.w3.org/1999/xlink" width="174" height="74" viewBox="0 0 174 74">
  <defs>
    <style>
      .cls-1 {
        fill: #fff;
        opacity: 0;
      }

      .cls-2 {
        fill: url(#linear-gradient);
      }

      .cls-3 {
        fill: url(#linear-gradient-2);
      }

      .cls-4 {
        fill: url(#linear-gradient-3);
      }

      .cls-5 {
        fill: url(#linear-gradient-4);
      }

      .cls-6 {
        fill: url(#linear-gradient-5);
      }

      .cls-7 {
        fill: url(#linear-gradient-6);
      }

      .cls-8 {
        fill: url(#linear-gradient-7);
      }

      .cls-9 {
        fill: url(#linear-gradient-8);
      }

      .cls-10 {
        fill: url(#linear-gradient-9);
      }

      .cls-11 {
        fill: url(#linear-gradient-10);
      }

      .cls-12 {
        fill: url(#linear-gradient-11);
      }

      .cls-13 {
        fill: url(#linear-gradient-12);
      }

      .cls-14 {
        fill: url(#linear-gradient-13);
      }

      .cls-15 {
        fill: url(#linear-gradient-14);
      }
    </style>
    <linearGradient id="linear-gradient" x1="68.24248" y1="8.98257" x2="69.44248" y2="66.98257" gradientUnits="userSpaceOnUse">
      <stop offset="0" stop-color="#827aff"/>
      <stop offset="1" stop-color="#7ca3ff"/>
    </linearGradient>
    <linearGradient id="linear-gradient-2" x1="100.66023" y1="8.31186" x2="101.86023" y2="66.31186" xlink:href="#linear-gradient"/>
    <linearGradient id="linear-gradient-3" x1="84.46631" y1="8.6469" x2="85.66631" y2="66.6469" xlink:href="#linear-gradient"/>
    <linearGradient id="linear-gradient-4" x1="85.00053" y1="8.63585" x2="86.20053" y2="66.63585" xlink:href="#linear-gradient"/>
    <linearGradient id="linear-gradient-5" x1="115.70084" y1="8.00067" x2="116.90084" y2="66.00067" xlink:href="#linear-gradient"/>
    <linearGradient id="linear-gradient-6" x1="48.3332" y1="9.39449" x2="49.5332" y2="67.39449" xlink:href="#linear-gradient"/>
    <linearGradient id="linear-gradient-7" x1="57.93572" y1="9.19581" x2="59.13572" y2="67.19581" xlink:href="#linear-gradient"/>
    <linearGradient id="linear-gradient-8" x1="66.45662" y1="9.01952" x2="67.65662" y2="67.01952" xlink:href="#linear-gradient"/>
    <linearGradient id="linear-gradient-9" x1="82.30971" y1="8.69152" x2="83.50971" y2="66.69152" xlink:href="#linear-gradient"/>
    <linearGradient id="linear-gradient-10" x1="95.3085" y1="8.42258" x2="96.5085" y2="66.42258" xlink:href="#linear-gradient"/>
    <linearGradient id="linear-gradient-11" x1="104.41084" y1="8.23426" x2="105.61084" y2="66.23426" xlink:href="#linear-gradient"/>
    <linearGradient id="linear-gradient-12" x1="112.96589" y1="8.05726" x2="114.16589" y2="66.05726" xlink:href="#linear-gradient"/>
    <linearGradient id="linear-gradient-13" x1="124.2519" y1="7.82375" x2="125.4519" y2="65.82375" xlink:href="#linear-gradient"/>
    <linearGradient id="linear-gradient-14" x1="87.58858" y1="8.58231" x2="88.78858" y2="66.58231" xlink:href="#linear-gradient"/>
  </defs>
  <title>usj</title>
  <g id="Layer_2" data-name="Layer 2">
    <g id="Layer_2-2" data-name="Layer 2">
      <rect class="cls-1" width="174" height="74"/>
    </g>
    <g id="Layer_1-2" data-name="Layer 1">
      <g>
        <path class="cls-2" d="M77.03094,7.27555h1.429c1.0699.10181,3.6242.59721,3.27514,2.21888q-3.18151,14.81042-6.3803,29.61719-.12635.58541-.2527,1.22806l-3.0788.49359a.85655.85655,0,0,1,.02454-.19725q3.6633-15.10947,7.32022-30.22077c.06272-.25816.21907-.49632-.13-.6254A5.26771,5.26771,0,0,0,76.53372,9.529a.60648.60648,0,0,0-.53268.40269Q67.47368,26.69734,58.939,43.45939a.05472.05472,0,0,0,.02.07363l-3.50421.88537q.00273-.02364.00364-.04272a.15814.15814,0,0,1,.01818-.07Q64.97936,26.32738,74.47937,8.34726C74.8666,7.6137,76.28284,7.31191,77.03094,7.27555Z"/>
        <path class="cls-3" d="M111.59494,38.85619l-2.93881-.17362q.01364-.09273-.02455-.09363-5.85944-12.2761-11.70889-24.55676c-.18452-.38724-.48449-1.17716-.94445-1.26625a3.56241,3.56241,0,0,0-2.8161.5854.64642.64642,0,0,0-.31451.71266Q95.52737,26.1674,98.218,38.26715c.01273.05727.00455.13454.01455.20362l-2.78428.07272a.01866.01866,0,0,1-.01636-.01.02527.02527,0,0,0-.02818-.01182Q92.954,26.06285,90.51966,13.60586a2.00876,2.00876,0,0,1-.0518-.66812A2.38358,2.38358,0,0,1,91.6532,11.6115c1.47985-.82992,4.52957-1.65984,5.96579-.33815a2.71744,2.71744,0,0,1,.51905.76175q6.63936,13.1942,13.27782,26.38931A2.529,2.529,0,0,1,111.59494,38.85619Z"/>
        <path class="cls-4" d="M91.94862,38.6662l-2.6952.16363a4.69241,4.69241,0,0,1-.05817-.61631q-.81538-10.34265-1.6353-20.6844a1.53124,1.53124,0,0,0-.07363-.2627.10548.10548,0,0,0-.04636-.05909,3.71,3.71,0,0,0-2.4934-.2727c-.45905.09363-.77538.13272-.85447.68721q-1.56711,10.969-3.13515,21.947l-2.7052.33087a1.19479,1.19479,0,0,1,.01-.21634q1.80438-11.17894,3.60693-22.35788a2.38012,2.38012,0,0,1,.72175-1.70984,5.96505,5.96505,0,0,1,4.46139-.89173c1.03445.15362,2.34433.62176,2.62975,1.75529q.03273.13089.09909.78811Q90.86236,27.9545,91.94862,38.6662Z"/>
        <path class="cls-5" d="M98.23257,38.47077q5.21313-.05636,10.42356.2118l2.93881.17362q6.71664.47859,13.38146,1.47258.05.00728.03454.05546l-.529,1.638a.09939.09939,0,0,1-.11908.07545,167.89663,167.89663,0,0,0-17.14292-1.31442,173.97312,173.97312,0,0,0-60.64152,9.66726.05362.05362,0,0,1-.07-.06272l.79265-3.56966a.117.117,0,0,1,.08454-.09181q4.05053-1.2417,8.06923-2.308L58.959,43.533q6.48121-1.59985,13.06422-2.69975l3.0788-.49359,3.1497-.44,2.7052-.33087q4.13778-.48723,8.29648-.739l2.6952-.16363,3.45513-.14453a.02527.02527,0,0,1,.02818.01182.01866.01866,0,0,0,.01636.01Z"/>
        <path class="cls-6" d="M115.66365,51.47317a.1718.1718,0,0,0-.24055.03416l-.01216.01856a1.87424,1.87424,0,0,0-.23543.7563.06316.06316,0,0,1-.06272.05726h-1.139q-.06271,0-.05181-.06181c.1409-.85628.57631-2.33432,1.61712-2.447.71539-.07727,1.41714.61631,1.98618.94718a.21723.21723,0,0,0,.2967-.07975l.00691-.013a2.32312,2.32312,0,0,0,.2127-.69629.06357.06357,0,0,1,.07091-.06091l1.10716.0091a.04665.04665,0,0,1,.04668.04682l-.00032.0059c-.13453,1.1008-.93355,3.16151-2.478,2.23706A12.82145,12.82145,0,0,1,115.66365,51.47317Z"/>
        <path class="cls-7" d="M48.36,66.72445H47.07015a3.22632,3.22632,0,0,1-3.24787-2.89154v-.889l1.78437-9.49a.05729.05729,0,0,1,.05636-.04636h2.77156q.04635,0,.03727.04545-.74175,3.88509-1.46986,7.77109c-.20271,1.08444-.79811,2.96153,1.02717,2.99971a2.06434,2.06434,0,0,0,2.30251-1.86618q.84174-4.44777,1.6762-8.89916a.05642.05642,0,0,1,.06091-.05091h2.77155q.0491,0,.04.04727-.75811,4.03689-1.50168,7.922-.29178,1.52168-.37087,1.778A5.19913,5.19913,0,0,1,48.36,66.72445Z"/>
        <path class="cls-8" d="M58.01729,66.72445H56.931a11.62487,11.62487,0,0,1-2.78428-.57267A.1037.1037,0,0,1,54.0704,66.02l.57267-3.02062a.03363.03363,0,0,1,.05454-.02,5.93122,5.93122,0,0,0,2.37523,1.14353c1.11807.25816,2.90336.16271,2.96608-1.31351.04-.93991-1.56985-1.73074-2.28069-2.19979-1.2008-.79265-2.32524-1.46168-2.22343-3.1288a4.37284,4.37284,0,0,1,3.76328-3.93689A10.31988,10.31988,0,0,1,63.834,53.843a.08334.08334,0,0,1,.06909.10908L63.395,56.6136a.04153.04153,0,0,1-.06182.03635c-1.07535-.35815-3.147-1.17625-4.205-.51267a.9427.9427,0,0,0-.39451,1.26442,2.27213,2.27213,0,0,0,.6054.55086q.98535.67812,1.98254,1.33987a3.17576,3.17576,0,0,1,1.82073,2.7961C63.06409,64.94735,60.65523,66.55992,58.01729,66.72445Z"/>
        <path class="cls-9" d="M65.9729,66.72445H64.70211a7.12848,7.12848,0,0,1-1.57894-.33724.04245.04245,0,0,1-.03181-.05454l.5045-2.587q.0118-.0609.07-.04181a6.17045,6.17045,0,0,0,2.29433.51086c.97081-.04272,1.17807-.64539,1.34805-1.53894q.87537-4.60684,1.74347-9.2164a.05719.05719,0,0,1,.06182-.05182h2.75337q.07272,0,.06.07182-.86173,4.655-1.77256,9.30275a7.95405,7.95405,0,0,1-.47631,1.71166C68.94808,66.02725,67.65274,66.54811,65.9729,66.72445Z"/>
        <path class="cls-10" d="M82.49134,66.72445H81.04148a12.12816,12.12816,0,0,1-2.31161-.41632.0368.0368,0,0,1-.02908-.04727l.35-1.85891a.02545.02545,0,0,1,.02957-.02052l.005.00143a7.20917,7.20917,0,0,0,3.75509.67993,2.51777,2.51777,0,0,0,2.30888-1.79892c.489-2.82428-5.56039-2.86791-4.69774-6.80663.7372-3.37058,5.00135-3.41058,7.562-2.63974a.03962.03962,0,0,1,.03091.0509l-.34,1.78165a.08.08,0,0,1-.094.063l-.01965-.00661c-1.27351-.63358-4.72318-1.399-5.255.7772a1.7663,1.7663,0,0,0,1.02354,1.92708c1.90072,1.19717,4.16869,2.16162,3.6442,4.97044C86.59549,65.56729,84.5775,66.59447,82.49134,66.72445Z"/>
        <path class="cls-11" d="M94.92379,66.72445H93.79118a6.128,6.128,0,0,1-1.40442-.27633.04775.04775,0,0,1-.03636-.06091l.30542-1.5953a.09274.09274,0,0,1,.1309-.06636c.98627.46541,2.84428.67721,3.49331-.49177a3.90336,3.90336,0,0,0,.39269-1.15171q.93717-4.81682,1.868-9.63272a.05182.05182,0,0,1,.0509-.04182h1.76892q.04545,0,.03727.04455-1.438,7.48656-2.01345,10.33538A3.36729,3.36729,0,0,1,94.92379,66.72445Z"/>
        <path class="cls-12" d="M104.88012,66.72445h-1.04081c-2.03253-.18453-3.00971-1.6053-3.16242-3.50512-.2318-2.88609.4245-6.80845,2.85245-8.74371,1.68075-1.34079,4.80409-1.68075,6.10215.389a4.55893,4.55893,0,0,1,.679,2.22251C110.49414,60.556,109.28516,66.32813,104.88012,66.72445Zm-1.47986-1.99253a2.20617,2.20617,0,0,0,2.30524.11453,4.45693,4.45693,0,0,0,1.86709-2.4834c.5345-1.53349,1.75075-6.71118-.64994-7.26749-3.48785-.80811-4.31231,5.02316-4.33049,7.16477A3.27409,3.27409,0,0,0,103.40026,64.73192Z"/>
        <path class="cls-13" d="M119.50146,66.72445h-1.85073l-.47268-3.86327a.05972.05972,0,0,0-.06636-.05817l-4.2696.00364a.06387.06387,0,0,0-.06.03726l-1.93891,3.88054h-1.98526l6.84116-13.286a.0528.0528,0,0,1,.05091-.03091h1.99617a.06319.06319,0,0,1,.06273.05636Zm-3.14788-10.94169a.03272.03272,0,0,0-.06181-.0109l-2.62612,5.31494a.03273.03273,0,0,0,.01477.04386l.01432.00341h3.247a.0327.0327,0,0,0,.032-.03342l-.00019-.00294Z"/>
        <path class="cls-14" d="M130.17772,57.04992v1.67984c-.21634,3.15879-1.53076,7.64927-5.41494,7.99469H123.772c-4.10507-.28179-3.49694-5.57492-2.79338-8.19013.73994-2.75247,2.65067-5.334,5.824-5.12224C128.98693,53.55843,130.00956,54.97466,130.17772,57.04992Zm-7.70836,5.10678c-.02636.879.25634,2.67157,1.36715,2.88791,3.7351.72812,4.44866-5.28949,4.37231-7.64382a2.21072,2.21072,0,0,0-1.41714-2.31069,2.68272,2.68272,0,0,0-2.90518,1.39078A11.91043,11.91043,0,0,0,122.46936,62.1567Z"/>
        <path class="cls-15" d="M89.6852,66.72445H87.42451l.44541-2.178a.0618.0618,0,0,1,.0609-.04909h2.138a.04454.04454,0,0,1,.04457.04451l-.00094.00913Z"/>
      </g>
    </g>
  </g>
</svg>
