<svg xmlns="http://www.w3.org/2000/svg" width="174" height="74" viewBox="0 0 174 74">
  <defs>
    <style>
      .cls-1, .cls-2 {
        fill: #fff;
      }

      .cls-1 {
        opacity: 0;
      }
    </style>
  </defs>
  <title>vw</title>
  <g id="Layer_2" data-name="Layer 2">
    <g id="Layer_2-2" data-name="Layer 2">
      <rect class="cls-1" width="174" height="74"/>
    </g>
    <g id="Layer_1-2" data-name="Layer 1">
      <path id="Caminho_122" data-name="Caminho 122" class="cls-2" d="M87,64.874A27.964,27.964,0,0,1,59.182,36.995a27.273,27.273,0,0,1,1.781-9.764L77.236,59.962a1,1,0,0,0,1.965,0l7.492-16.764c.061-.184.184-.368.368-.368s.246.184.368.368l7.492,16.764a1,1,0,0,0,1.965,0l16.273-32.73a27.27209,27.27209,0,0,1,1.781,9.764A28.15,28.15,0,0,1,87,64.874Zm0-34.2c-.184,0-.246-.184-.368-.368l-8.72-19.655a26.665,26.665,0,0,1,18.177,0l-8.72,19.651C87.246,30.547,87.184,30.674,87,30.674Zm-8.9,20.2c-.184,0-.246-.184-.368-.368L63.606,22.011a28.259,28.259,0,0,1,10.009-9.4L83.806,35.274a.715.715,0,0,0,.737.491h4.913a.718.718,0,0,0,.8-.491l10.192-22.658a28.78,28.78,0,0,1,10.01,9.4L96.211,50.505c-.061.184-.184.368-.368.368s-.246-.184-.368-.368L90.132,38.346a.718.718,0,0,0-.8-.491H84.421a.718.718,0,0,0-.8.491L78.464,50.505c-.058.184-.184.369-.368.369ZM87,67.7A30.7,30.7,0,1,0,56.3,37h0A30.637,30.637,0,0,0,86.8749,67.699q.06257.00014.12513,0Z"/>
    </g>
  </g>
</svg>
