<svg xmlns="http://www.w3.org/2000/svg" width="40" height="40" viewBox="0 0 40 40">
  <defs>
    <style>
      .cls-1 {
        fill: #fff;
        opacity: 0;
      }

      .cls-2 {
        fill: #9a9aa0;
      }
    </style>
  </defs>
  <title>whatsapp</title>
  <g id="Layer_2" data-name="Layer 2">
    <g id="Layer_2-2" data-name="Layer 2">
      <rect class="cls-1" width="40" height="40"/>
    </g>
    <g id="Layer_1-2" data-name="Layer 1">
      <path class="cls-2" d="M32.25,19.8726A12.2579,12.2579,0,0,1,19.99414,32.01323h-.00488a12.1096,12.1096,0,0,1-5.80274-1.47657L7.75,32.22612l1.72266-6.28907A12.16417,12.16417,0,1,1,32.25,19.8726Zm-2.05078,0a10.12744,10.12744,0,0,0-3.06836-7.13672A9.99662,9.99662,0,0,0,20,9.7769a10.09579,10.09579,0,0,0-8.55273,15.46l.24023.38281-1.01758,3.72461,3.81738-1.001.36622.21875a10.07185,10.07185,0,0,0,5.14062,1.40528A10.20343,10.20343,0,0,0,30.19922,19.8726ZM26.10352,22.771a2.53944,2.53944,0,0,1-.17579,1.44336,3.103,3.103,0,0,1-2.04492,1.44336c-.96289.14257-1.71679.07129-3.64258-.75977a13.55043,13.55043,0,0,1-5.18359-4.583,5.93241,5.93241,0,0,1-1.23633-3.13867,3.41221,3.41221,0,0,1,1.06055-2.53223,1.12431,1.12431,0,0,1,.80957-.377c.20215,0,.40527,0,.58008.01074.18554.01075.4375-.07129.68359.51953.251.60645.8584,2.09961.93457,2.25293a.55973.55973,0,0,1,.02735.53028c-.57911,1.15918-1.20313,1.12109-.89063,1.65722a8.25861,8.25861,0,0,0,4.12891,3.60938c.30078.15332.48047.126.65625-.07617.17968-.208.75976-.88672.96191-1.19239.20215-.30664.40527-.25683.68359-.15332.2793.09864,1.77247.83106,2.07325.98438C25.83008,22.55717,26.03223,22.63432,26.10352,22.771Z"/>
    </g>
  </g>
</svg>
