<svg xmlns="http://www.w3.org/2000/svg" width="174" height="74" viewBox="0 0 174 74">
  <defs>
    <style>
      .cls-1, .cls-2 {
        fill: #fff;
      }

      .cls-1 {
        opacity: 0;
      }

      .cls-2 {
        fill-rule: evenodd;
      }
    </style>
  </defs>
  <title>wps</title>
  <g id="Layer_2" data-name="Layer 2">
    <g id="Layer_2-2" data-name="Layer 2">
      <rect class="cls-1" width="174" height="74"/>
    </g>
    <g id="Layer_1-2" data-name="Layer 1">
      <g id="Header">
        <g id="WPS_LOGO_Normal" data-name="WPS LOGO Normal">
          <g id="编组">
            <g id="编组-6">
              <path id="Combined-Shape" class="cls-2" d="M100.31533,26.89513a1.4,1.4,0,0,1,1.389,1.389v18.054a1.4,1.4,0,0,1-1.389,1.389,1.6,1.6,0,0,1-1.136-.505l-7.2-7.2,1.136-1.136.126-.126c.253-.126.379-.253.631-.253a1.794,1.794,0,0,1,.758.253l.126.126h0l4.04,4.04v-14.768A1.624,1.624,0,0,1,100.31533,26.89513Zm-18.054,0a1.4,1.4,0,0,1,1.389,1.389v14.771l6.691-6.691a1.434,1.434,0,0,1,1.01-.379,2.34117,2.34117,0,0,1,.884.253l.126.126,1.136,1.136a3.165,3.165,0,0,0-.884.505l-.126.126-7.7,7.7h0l-1.515,1.517-.126.126a1.06505,1.06505,0,0,1-.884.253,1.4,1.4,0,0,1-1.39-1.389v-18.054A1.4,1.4,0,0,1,82.26133,26.89513Zm26.134,8.712a2.036,2.036,0,0,0-.379,1.136v9.6a1.389,1.389,0,0,1-2.778,0v-7.959a2.8,2.8,0,0,1,2.778-2.778Zm34.215.379h.126a5.934,5.934,0,1,1,.00125,11.868H129.22732a1.389,1.389,0,0,1,0-2.778h13.509a3.1,3.1,0,0,0,3.156-3.03h0v-.251a6.635,6.635,0,0,0-3.282-5.81Zm4.672-9.091a1.389,1.389,0,1,1,0,2.778h-13.51a3.1,3.1,0,0,0-3.156,3.03h0a3.1,3.1,0,0,0,3.03,3.156h5.555a5.82,5.82,0,0,1,4.924,3.156,4.80981,4.80981,0,0,0-1.263-.379h-9.09a5.927,5.927,0,0,1-5.934-5.92q0-.007,0-.014a5.821,5.821,0,0,1,5.83389-5.80808q.05005.00011.10011.00108Zm-26.893,0a5.6815,5.6815,0,0,1,0,11.363h-11.362v-1.389a1.376,1.376,0,0,1,1.263-1.389h10.1a2.857,2.857,0,0,0,2.9-2.81334q.00066-.04333,0-.08666a2.857,2.857,0,0,0-2.81334-2.9q-.04334-.00066-.08666,0h-13.762a1.3925,1.3925,0,0,1,0-2.785Z"/>
            </g>
          </g>
          <g id="编组-7">
            <path id="路径" class="cls-2" d="M54.64432,51.13513l-3.914-8.08,3.283-6.944,3.788,7.828h0l7.827-16.413a.8.8,0,0,0-.379-1.01c-.126,0-.253-.126-.379-.126h-8.585l-11.867,24.745a3.593,3.593,0,0,1-4.545,1.894,3.712,3.712,0,0,1-1.894-1.768v-.126l-12.373-26.134a3.185,3.185,0,0,1,1.515-4.166,6.515,6.515,0,0,1,1.389-.253h14.9a4.955,4.955,0,0,1,4.419,2.651l.631,1.263-3.283,6.944-2.02-4.166a1.713,1.713,0,0,0-1.389-.884h-7.577a.815.815,0,0,0-.758.758.464.464,0,0,0,.126.379l7.828,16.413h0l4.924-10.228h0l3.283-6.817h0l1.768-3.535a4.541,4.541,0,0,1,4.292-2.778h15.024a3.126,3.126,0,0,1,3.156,3.09571q.0003.03015,0,.06029a5.36914,5.36914,0,0,1-.253,1.389l-12.498,26.135h0a3.482,3.482,0,0,1-4.545,1.894,3.341,3.341,0,0,1-1.894-2.02Z"/>
            <path id="形状结合" class="cls-2" d="M52.24533,35.10113h-6.691l.631-1.263h0l3.409-6.943,1.768-3.535a4.541,4.541,0,0,1,4.292-2.778h6.439a4.693,4.693,0,0,0-4.039,2.651h0l-5.43,11.237Z"/>
            <path id="路径-2" data-name="路径" class="cls-2" d="M70.67933,20.58213a3.126,3.126,0,0,1,3.156,3.09571q.0003.03015,0,.06029a5.36914,5.36914,0,0,1-.253,1.389l-4.8,10.1-6.313-.631,3.286-6.944a.8.8,0,0,0-.379-1.01c-.126,0-.253-.126-.379-.126h-8.585l1.515-3.156a4.741,4.741,0,0,1,4.293-2.778Z"/>
          </g>
        </g>
      </g>
    </g>
  </g>
</svg>
